<?xml version="1.0" encoding="utf-8"?>
<!-- Generator: Adobe Illustrator 16.0.3, SVG Export Plug-In . SVG Version: 6.00 Build 0)  -->
<!DOCTYPE svg PUBLIC "-//W3C//DTD SVG 1.1//EN" "http://www.w3.org/Graphics/SVG/1.1/DTD/svg11.dtd">
<svg version="1.1" id="Vrstva_1" xmlns="http://www.w3.org/2000/svg" xmlns:xlink="http://www.w3.org/1999/xlink" x="0px" y="0px"
	 width="122.22px" height="44.5px" viewBox="0 0 122.22 44.5" enable-background="new 0 0 122.22 44.5" xml:space="preserve">
<g>
	<path fill="#D73648" d="M21.505,31.147V20.796l16.285-7.153c0.526,0.988,3.661,6.724,1.408,14.229
		C33.66,24.038,27.005,24.832,21.505,31.147 M35.9,34.183H24.641c-0.175,1.319-1.263,2.408-3.506,2.408
		c-2.243,0-3.331-1.089-3.506-2.408H6.369c-1.316-1.655-2.357-3.538-3.061-5.577c2.412-1.69,5.586-2.992,9.573-1.949
		c2.605,0.682,5.787,2.708,8.253,6.196c0-0.034,0-0.034,0,0c2.467-3.487,5.649-5.514,8.254-6.196
		c3.986-1.043,7.161,0.258,9.573,1.949C38.258,30.645,37.216,32.527,35.9,34.183 M28.493,39.83l-2.907-4.906h9.693
		C33.425,37.028,31.11,38.718,28.493,39.83 M21.134,41.327c-2.344,0-4.59-0.432-6.662-1.218l2.791-4.709
		c0.429,0.766,1.457,1.931,3.872,1.931c2.416,0,3.443-1.166,3.872-1.931l2.792,4.709C25.725,40.895,23.479,41.327,21.134,41.327
		 M6.99,34.924h9.693l-2.907,4.906C11.159,38.718,8.845,37.028,6.99,34.924 M4.479,13.643l16.285,7.153v10.352
		c-5.5-6.315-12.154-7.109-17.693-3.275C0.818,20.367,3.953,14.631,4.479,13.643 M8.981,8.071c0.389,2.614,1.959,3.537,3.648,4.073
		c-0.971,2.005-0.634,3.607-0.611,4.001l-7.177-3.152C5.936,11.118,7.331,9.463,8.981,8.071 M15.529,9.658
		c4.244,0.847,5.014,3.486,5.167,5.473c0.058,0.761,0.07,1.405,0.07,1.724c-0.355-0.587-0.798-1.174-2.048-1.584
		c-0.4-1.966-1.677-2.811-4.472-3.459c-2.193-0.509-4.299-1.11-4.602-4.321C10.29,7.936,11.166,8.788,15.529,9.658 M21.134,3.617
		c4.041,0,7.772,1.27,10.845,3.443c-1.333,0.99-3.227,1.406-5.264,1.853c-1.612-1.048-3.539-1.603-5.577-1.603h-0.004H21.13
		c-2.038,0-3.965,0.555-5.577,1.603C13.517,8.466,11.623,8.05,10.29,7.06C13.362,4.886,17.094,3.617,21.134,3.617 M25.983,13.231
		c0.268-0.131,0.558-0.242,0.863-0.338c0.701,1.031,0.263,2.105-0.433,2.591c-0.689,0.479-1.551,0.424-2.145-0.029
		c0.076-0.39,0.162-0.654,0.361-1.001c0.337,0.541,0.924,0.535,1.273,0.227C26.253,14.373,26.403,13.729,25.983,13.231 M16.55,9.182
		c1.362-0.741,2.931-1.132,4.581-1.132h0.003h0.004c1.649,0,3.218,0.391,4.581,1.132c-2.024,0.607-3.834,1.613-4.584,4.303
		C20.384,10.794,18.575,9.789,16.55,9.182 M16.365,14.682c0.35,0.308,0.936,0.314,1.274-0.227c0.198,0.347,0.285,0.611,0.361,1.001
		c-0.593,0.453-1.456,0.508-2.145,0.029c-0.696-0.486-1.134-1.56-0.434-2.591c0.306,0.096,0.596,0.207,0.864,0.338
		C15.866,13.729,16.016,14.373,16.365,14.682 M15.313,16.011c1.106,0.838,2.498,0.58,3.214-0.024
		c1.103,0.264,1.952,1.334,2.607,2.865v0l0,0c0.655-1.531,1.505-2.601,2.608-2.865c0.715,0.604,2.107,0.862,3.213,0.024
		c0.947-0.719,1.313-2.1,0.636-3.328c0.199-0.051,1.082-0.268,1.32-0.33c0.878,1.526,0.727,3.549,0.514,4.156l-8.291,3.641
		l-8.29-3.641c-0.215-0.606-0.365-2.63,0.513-4.156c0.239,0.062,1.121,0.279,1.32,0.33C14,13.911,14.367,15.292,15.313,16.011
		 M28.024,11.812c-2.796,0.648-4.073,1.493-4.473,3.459c-1.25,0.41-1.694,0.997-2.048,1.584c0-0.319,0.012-0.963,0.071-1.724
		c0.152-1.987,0.922-4.625,5.166-5.473c4.363-0.87,5.239-1.722,5.886-2.167C32.323,10.701,30.216,11.303,28.024,11.812
		 M37.428,12.993l-7.177,3.152c0.022-0.394,0.359-1.996-0.612-4.001c1.69-0.537,3.26-1.459,3.649-4.073
		C34.938,9.463,36.333,11.118,37.428,12.993 M21.134,2.876c-10.805,0-19.596,8.791-19.596,19.596
		c0,10.806,8.791,19.596,19.596,19.596c10.806,0,19.596-8.791,19.596-19.596C40.73,11.667,31.94,2.876,21.134,2.876"/>
	<g>
		<path d="M47.735,11.851l3.846,3.526c0.631,0.582,1.169,0.978,1.615,1.188c0.445,0.21,0.892,0.33,1.338,0.358v0.263h-4.96v-0.263
			c0.297,0,0.511-0.046,0.642-0.138s0.196-0.195,0.196-0.309c0-0.114-0.024-0.215-0.073-0.305s-0.209-0.258-0.48-0.504l-3.6-3.285
			v3.101c0,0.487,0.034,0.809,0.101,0.965c0.051,0.118,0.159,0.22,0.323,0.305c0.22,0.113,0.453,0.17,0.699,0.17h0.354v0.263h-4.444
			v-0.263h0.369c0.431,0,0.743-0.116,0.938-0.348c0.123-0.151,0.185-0.515,0.185-1.092V9.269c0-0.487-0.033-0.811-0.1-0.972
			c-0.051-0.113-0.156-0.213-0.315-0.298c-0.226-0.114-0.461-0.17-0.707-0.17h-0.369V7.565h4.444v0.263h-0.354
			c-0.241,0-0.474,0.055-0.699,0.163c-0.159,0.076-0.27,0.189-0.331,0.341s-0.093,0.463-0.093,0.937v2.944
			c0.103-0.09,0.454-0.39,1.054-0.901c1.523-1.287,2.443-2.145,2.761-2.576c0.139-0.189,0.208-0.355,0.208-0.497
			c0-0.109-0.054-0.205-0.161-0.288c-0.108-0.083-0.29-0.124-0.546-0.124h-0.239V7.565h3.83v0.263
			c-0.226,0.005-0.431,0.033-0.615,0.085c-0.185,0.052-0.41,0.153-0.677,0.302s-0.595,0.389-0.984,0.72
			c-0.112,0.095-0.633,0.58-1.561,1.455L47.735,11.851z"/>
		<path d="M61.071,10.688v3.938c0,0.752,0.019,1.212,0.058,1.38c0.038,0.168,0.1,0.285,0.185,0.351
			c0.084,0.066,0.183,0.099,0.296,0.099c0.158,0,0.338-0.04,0.538-0.121l0.107,0.249l-2.106,0.802h-0.347v-1.376
			c-0.604,0.605-1.066,0.986-1.384,1.142c-0.318,0.156-0.654,0.234-1.008,0.234c-0.395,0-0.737-0.105-1.026-0.316
			c-0.29-0.21-0.491-0.481-0.604-0.813c-0.113-0.331-0.17-0.799-0.17-1.405V11.95c0-0.307-0.035-0.52-0.107-0.638
			c-0.071-0.118-0.178-0.209-0.319-0.273c-0.141-0.064-0.396-0.093-0.765-0.088v-0.263h2.469v4.349c0,0.605,0.113,1.003,0.342,1.192
			c0.229,0.189,0.504,0.284,0.827,0.284c0.22,0,0.47-0.064,0.749-0.192c0.279-0.127,0.611-0.371,0.996-0.73v-3.683
			c0-0.369-0.073-0.618-0.219-0.749c-0.146-0.13-0.45-0.2-0.911-0.209v-0.263H61.071z"/>
		<path d="M64.831,10.496v1.461c0.59-0.975,1.195-1.461,1.815-1.461c0.282,0,0.516,0.079,0.7,0.237
			c0.185,0.159,0.276,0.342,0.276,0.55c0,0.184-0.066,0.34-0.2,0.468c-0.133,0.127-0.292,0.191-0.477,0.191
			c-0.18,0-0.381-0.082-0.604-0.245c-0.223-0.164-0.389-0.245-0.496-0.245c-0.093,0-0.192,0.047-0.3,0.142
			c-0.23,0.194-0.47,0.513-0.716,0.958v3.115c0,0.36,0.049,0.632,0.146,0.816c0.066,0.128,0.185,0.234,0.354,0.319
			c0.17,0.085,0.413,0.128,0.73,0.128v0.255h-3.606v-0.255c0.359,0,0.626-0.052,0.8-0.156c0.128-0.076,0.218-0.196,0.27-0.362
			c0.025-0.08,0.038-0.31,0.038-0.688v-2.519c0-0.756-0.017-1.207-0.05-1.352c-0.033-0.144-0.095-0.25-0.185-0.315
			c-0.09-0.066-0.201-0.1-0.335-0.1c-0.158,0-0.338,0.036-0.538,0.106l-0.077-0.255l2.131-0.794H64.831z"/>
		<path d="M74.137,15.193l-0.084,1.994h-6.214v-0.255l4.676-5.747h-2.308c-0.497,0-0.822,0.03-0.977,0.089
			c-0.153,0.059-0.279,0.171-0.377,0.337c-0.138,0.236-0.218,0.53-0.238,0.88h-0.308l0.046-1.802h5.906v0.263l-4.722,5.761h2.568
			c0.539,0,0.904-0.041,1.097-0.124c0.192-0.083,0.347-0.228,0.465-0.436c0.082-0.151,0.151-0.471,0.208-0.958H74.137z"/>
		<path d="M74.605,10.688h3.284v0.263h-0.161c-0.231,0-0.404,0.046-0.52,0.138s-0.173,0.207-0.173,0.344
			c0,0.184,0.085,0.44,0.254,0.766l1.715,3.278l1.576-3.59c0.088-0.194,0.131-0.386,0.131-0.575c0-0.085-0.018-0.149-0.054-0.192
			c-0.041-0.052-0.105-0.093-0.192-0.124s-0.241-0.046-0.461-0.046v-0.263h2.291v0.263c-0.189,0.019-0.335,0.057-0.438,0.113
			c-0.104,0.057-0.216,0.163-0.339,0.319c-0.046,0.066-0.134,0.249-0.262,0.546l-2.868,6.485c-0.277,0.629-0.64,1.104-1.088,1.426
			c-0.449,0.322-0.881,0.483-1.296,0.483c-0.303,0-0.552-0.081-0.746-0.242c-0.195-0.161-0.292-0.345-0.292-0.553
			c0-0.199,0.07-0.358,0.211-0.479c0.142-0.121,0.335-0.181,0.581-0.181c0.169,0,0.399,0.052,0.691,0.156
			c0.205,0.071,0.334,0.106,0.385,0.106c0.154,0,0.322-0.073,0.504-0.22s0.365-0.431,0.55-0.852l0.5-1.128l-2.53-4.903
			c-0.077-0.146-0.2-0.329-0.369-0.546c-0.128-0.166-0.233-0.276-0.315-0.333c-0.118-0.075-0.308-0.142-0.569-0.198V10.688z"/>
		<path d="M95.809,7.346l0.238,3.271h-0.238c-0.318-0.979-0.771-1.684-1.361-2.114c-0.59-0.431-1.297-0.646-2.123-0.646
			c-0.691,0-1.317,0.162-1.876,0.486c-0.559,0.324-0.999,0.84-1.319,1.55c-0.32,0.709-0.48,1.591-0.48,2.646
			c0,0.871,0.151,1.625,0.454,2.264c0.303,0.638,0.758,1.128,1.365,1.469c0.607,0.34,1.301,0.511,2.08,0.511
			c0.677,0,1.273-0.134,1.792-0.401c0.518-0.267,1.087-0.798,1.707-1.593l0.238,0.142c-0.522,0.856-1.133,1.483-1.83,1.88
			s-1.525,0.596-2.484,0.596c-1.728,0-3.065-0.591-4.015-1.773c-0.707-0.88-1.061-1.916-1.061-3.108c0-0.96,0.233-1.842,0.699-2.646
			c0.467-0.804,1.109-1.427,1.927-1.869s1.711-0.664,2.68-0.664c0.754,0,1.497,0.17,2.23,0.511c0.216,0.104,0.369,0.156,0.462,0.156
			c0.138,0,0.259-0.045,0.361-0.135c0.133-0.128,0.228-0.305,0.284-0.532H95.809z"/>
		<path d="M105.891,7.565l-6.853,9.039h4.276c0.656,0,1.159-0.132,1.511-0.397c0.352-0.265,0.662-0.802,0.935-1.611l0.254,0.043
			l-0.492,2.547h-8.49v-0.263l6.69-8.784h-3.338c-0.554,0-0.955,0.056-1.203,0.167c-0.249,0.111-0.438,0.272-0.569,0.482
			s-0.25,0.604-0.357,1.181h-0.292l0.215-2.405H105.891z M102.476,6.813h-1.415L99.6,4.465h0.238l2.1,1.504l1.761-1.504h0.231
			L102.476,6.813z"/>
		<path d="M117.634,7.565v0.263c-0.369,0.062-0.648,0.17-0.838,0.327c-0.272,0.231-0.513,0.586-0.723,1.064l-3.638,8.188h-0.285
			l-3.906-8.294c-0.2-0.426-0.341-0.686-0.423-0.78c-0.129-0.146-0.286-0.261-0.474-0.344c-0.187-0.083-0.439-0.136-0.757-0.16
			V7.565h4.26v0.263c-0.481,0.042-0.794,0.118-0.938,0.227s-0.216,0.249-0.216,0.418c0,0.237,0.118,0.605,0.354,1.107l2.653,5.641
			l2.461-5.57c0.241-0.548,0.361-0.929,0.361-1.142c0-0.137-0.074-0.269-0.223-0.394c-0.148-0.125-0.399-0.214-0.754-0.266
			c-0.025-0.005-0.069-0.012-0.131-0.021V7.565H117.634z"/>
		<path fill="#D73648" d="M50.251,24.782v3.328h-0.285c-0.092-0.639-0.258-1.147-0.496-1.525s-0.578-0.679-1.019-0.901
			c-0.441-0.222-0.897-0.333-1.369-0.333c-0.533,0-0.974,0.15-1.322,0.451s-0.523,0.642-0.523,1.025c0,0.293,0.11,0.561,0.331,0.802
			c0.317,0.354,1.074,0.828,2.269,1.419c0.974,0.482,1.639,0.853,1.995,1.11s0.631,0.562,0.823,0.912s0.288,0.717,0.288,1.1
			c0,0.729-0.306,1.356-0.919,1.884c-0.612,0.528-1.4,0.791-2.364,0.791c-0.303,0-0.587-0.021-0.854-0.063
			c-0.159-0.024-0.488-0.11-0.988-0.259s-0.816-0.223-0.95-0.223c-0.128,0-0.229,0.035-0.304,0.106
			c-0.074,0.071-0.13,0.217-0.165,0.439h-0.285v-3.299h0.285c0.133,0.69,0.313,1.207,0.538,1.55c0.226,0.343,0.57,0.628,1.034,0.855
			s0.973,0.34,1.526,0.34c0.642,0,1.147-0.156,1.52-0.468c0.371-0.312,0.558-0.681,0.558-1.107c0-0.236-0.071-0.475-0.212-0.716
			s-0.36-0.466-0.657-0.674c-0.2-0.142-0.746-0.443-1.639-0.904c-0.892-0.461-1.526-0.829-1.903-1.104s-0.662-0.577-0.857-0.908
			c-0.194-0.331-0.292-0.695-0.292-1.093c0-0.69,0.287-1.285,0.861-1.784s1.305-0.749,2.191-0.749c0.554,0,1.141,0.125,1.762,0.376
			c0.287,0.118,0.489,0.177,0.607,0.177c0.133,0,0.242-0.037,0.327-0.11c0.084-0.073,0.152-0.221,0.203-0.443H50.251z M48.082,24.25
			h-1.415l-1.461-2.348h0.238l2.1,1.504l1.761-1.504h0.23L48.082,24.25z"/>
		<path fill="#D73648" d="M56.272,33.687c-0.723,0.516-1.177,0.813-1.361,0.894c-0.276,0.118-0.571,0.177-0.884,0.177
			c-0.487,0-0.889-0.154-1.204-0.461c-0.315-0.308-0.473-0.712-0.473-1.213c0-0.317,0.077-0.591,0.23-0.823
			c0.21-0.321,0.575-0.624,1.096-0.908c0.521-0.284,1.386-0.629,2.596-1.036v-0.255c0-0.648-0.111-1.093-0.334-1.334
			c-0.224-0.241-0.548-0.362-0.974-0.362c-0.322,0-0.579,0.081-0.769,0.241c-0.195,0.161-0.292,0.345-0.292,0.553l0.015,0.412
			c0,0.218-0.06,0.386-0.181,0.504c-0.12,0.118-0.278,0.177-0.473,0.177c-0.189,0-0.345-0.062-0.465-0.185
			c-0.121-0.123-0.182-0.291-0.182-0.503c0-0.407,0.226-0.781,0.677-1.121c0.451-0.341,1.085-0.511,1.9-0.511
			c0.625,0,1.138,0.097,1.538,0.291c0.302,0.147,0.525,0.376,0.669,0.688c0.092,0.203,0.138,0.62,0.138,1.249v2.207
			c0,0.62,0.014,1,0.039,1.139c0.025,0.14,0.067,0.233,0.127,0.28c0.059,0.047,0.127,0.071,0.203,0.071
			c0.082,0,0.154-0.017,0.216-0.05c0.107-0.062,0.315-0.234,0.623-0.518v0.397c-0.574,0.709-1.123,1.064-1.646,1.064
			c-0.252,0-0.451-0.081-0.601-0.241C56.354,34.349,56.277,34.074,56.272,33.687z M56.272,33.225v-2.476
			c-0.774,0.284-1.274,0.485-1.5,0.603c-0.404,0.208-0.694,0.426-0.868,0.653c-0.175,0.227-0.262,0.476-0.262,0.745
			c0,0.34,0.11,0.623,0.33,0.848c0.221,0.225,0.475,0.337,0.762,0.337C55.124,33.935,55.637,33.698,56.272,33.225z"/>
		<path fill="#D73648" d="M61.202,29.245c0.682-0.875,1.417-1.313,2.207-1.313c0.723,0,1.354,0.285,1.892,0.855
			c0.538,0.57,0.808,1.349,0.808,2.337c0,1.154-0.415,2.084-1.246,2.789c-0.713,0.605-1.507,0.908-2.384,0.908
			c-0.41,0-0.827-0.069-1.25-0.206c-0.423-0.137-0.854-0.343-1.296-0.617v-6.733c0-0.738-0.019-1.192-0.058-1.362
			c-0.038-0.17-0.099-0.286-0.181-0.348s-0.185-0.092-0.308-0.092c-0.144,0-0.323,0.038-0.538,0.113l-0.107-0.248l2.114-0.795h0.347
			V29.245z M61.202,29.699v3.888c0.261,0.236,0.531,0.415,0.811,0.536s0.565,0.181,0.857,0.181c0.467,0,0.901-0.236,1.304-0.709
			c0.402-0.473,0.604-1.161,0.604-2.064c0-0.833-0.201-1.472-0.604-1.919c-0.402-0.447-0.859-0.67-1.372-0.67
			c-0.272,0-0.544,0.064-0.815,0.191C61.781,29.226,61.52,29.416,61.202,29.699z"/>
		<path fill="#D73648" d="M69.569,24.534v8.621c0,0.407,0.031,0.677,0.096,0.809s0.163,0.233,0.296,0.301
			c0.134,0.069,0.382,0.103,0.746,0.103v0.255h-3.453v-0.255c0.323,0,0.544-0.031,0.661-0.092c0.118-0.062,0.211-0.163,0.277-0.305
			c0.066-0.142,0.1-0.414,0.1-0.816v-5.903c0-0.733-0.018-1.184-0.054-1.352s-0.094-0.283-0.173-0.344s-0.181-0.092-0.304-0.092
			c-0.134,0-0.303,0.038-0.508,0.113l-0.131-0.248l2.1-0.795H69.569z"/>
		<path fill="#D73648" d="M74.968,27.933c1.066,0,1.923,0.374,2.568,1.121c0.549,0.639,0.823,1.372,0.823,2.2
			c0,0.582-0.151,1.171-0.454,1.767c-0.303,0.596-0.719,1.045-1.249,1.348c-0.531,0.303-1.122,0.454-1.773,0.454
			c-1.061,0-1.904-0.39-2.53-1.171c-0.527-0.657-0.792-1.395-0.792-2.213c0-0.596,0.16-1.188,0.481-1.777
			c0.32-0.589,0.741-1.024,1.265-1.306C73.829,28.073,74.383,27.933,74.968,27.933z M74.729,28.394
			c-0.271,0-0.545,0.075-0.819,0.224s-0.496,0.41-0.665,0.784c-0.169,0.374-0.254,0.854-0.254,1.44c0,0.946,0.204,1.762,0.611,2.448
			c0.408,0.686,0.944,1.029,1.611,1.029c0.497,0,0.907-0.189,1.23-0.567s0.484-1.029,0.484-1.951c0-1.154-0.27-2.063-0.808-2.725
			C75.757,28.621,75.293,28.394,74.729,28.394z"/>
		<path fill="#D73648" d="M81.451,29.309c0.825-0.918,1.612-1.376,2.36-1.376c0.385,0,0.716,0.088,0.992,0.266
			c0.277,0.177,0.497,0.469,0.661,0.876c0.113,0.284,0.17,0.719,0.17,1.306v2.774c0,0.412,0.035,0.691,0.107,0.837
			c0.057,0.118,0.147,0.21,0.272,0.276c0.126,0.066,0.358,0.1,0.696,0.1v0.255h-3.483v-0.255h0.146c0.328,0,0.558-0.046,0.688-0.138
			c0.131-0.092,0.222-0.229,0.273-0.408c0.021-0.071,0.03-0.293,0.03-0.667v-2.661c0-0.591-0.083-1.021-0.25-1.288
			c-0.166-0.267-0.447-0.401-0.842-0.401c-0.61,0-1.218,0.308-1.822,0.922v3.427c0,0.44,0.027,0.712,0.084,0.816
			c0.072,0.137,0.171,0.238,0.296,0.302c0.126,0.064,0.381,0.096,0.766,0.096v0.255h-3.483v-0.255h0.153
			c0.359,0,0.602-0.084,0.727-0.252c0.126-0.168,0.188-0.488,0.188-0.961v-2.412c0-0.781-0.019-1.256-0.058-1.426
			c-0.038-0.17-0.098-0.286-0.177-0.348s-0.186-0.092-0.319-0.092c-0.144,0-0.315,0.036-0.515,0.106l-0.116-0.255l2.123-0.794h0.331
			V29.309z"/>
		<path fill="#D73648" d="M86.872,28.124h3.284v0.263h-0.161c-0.231,0-0.404,0.046-0.52,0.138s-0.173,0.207-0.173,0.344
			c0,0.184,0.085,0.44,0.254,0.766l1.715,3.278l1.576-3.59c0.088-0.194,0.131-0.386,0.131-0.575c0-0.085-0.018-0.149-0.054-0.192
			c-0.041-0.052-0.105-0.093-0.192-0.124s-0.241-0.046-0.461-0.046v-0.263h2.291v0.263c-0.189,0.019-0.335,0.057-0.438,0.113
			c-0.104,0.057-0.216,0.163-0.339,0.319c-0.046,0.066-0.134,0.249-0.262,0.546l-2.868,6.485c-0.277,0.629-0.64,1.104-1.088,1.426
			c-0.449,0.322-0.881,0.483-1.296,0.483c-0.303,0-0.552-0.081-0.746-0.242c-0.195-0.161-0.292-0.345-0.292-0.553
			c0-0.199,0.07-0.358,0.211-0.479c0.142-0.121,0.335-0.181,0.581-0.181c0.169,0,0.399,0.052,0.691,0.156
			c0.205,0.071,0.334,0.106,0.385,0.106c0.154,0,0.322-0.073,0.504-0.22s0.365-0.431,0.55-0.852l0.5-1.128l-2.53-4.903
			c-0.077-0.146-0.2-0.329-0.369-0.546c-0.128-0.166-0.233-0.276-0.315-0.333c-0.118-0.075-0.308-0.142-0.569-0.198V28.124z"/>
	</g>
</g>
</svg>
