<svg xmlns="http://www.w3.org/2000/svg" width="103.263" height="38.719" xmlns:v="https://vecta.io/nano"><g fill="#3b4252"><path d="M45.53 24.241v-4.348a2.61 2.61 0 0 1 2.755-2.821 2.34 2.34 0 0 1 2.34 2.622v4.547h.747v-4.547a3.03 3.03 0 0 0-.776-2.388c-.592-.646-1.435-1.004-2.311-.981a2.93 2.93 0 0 0-2.987 2.008c-.369-1.252-1.552-2.084-2.855-2.008a2.85 2.85 0 0 0-2.738 1.693v-1.527h-.763v7.75h.763v-4.348a2.59 2.59 0 0 1 2.738-2.821 2.34 2.34 0 0 1 2.34 2.622v4.547zm9.266-7.75v7.75h-.747v-7.75zM53.75 13.62a.63.63 0 0 0 .204.446c.125.115.291.176.46.168.228.013.444-.101.562-.296s.118-.44 0-.635-.334-.309-.562-.296c-.17-.008-.335.053-.46.168a.63.63 0 0 0-.203.446zm9.475 9.293a3.4 3.4 0 0 1-2.157.747c-1.82 0-3.294-1.475-3.294-3.295s1.475-3.294 3.294-3.294c.78 0 1.537.257 2.157.73l.481-.564a4.27 4.27 0 0 0-2.639-.913 4.041 4.041 0 1 0 0 8.082 4.1 4.1 0 0 0 2.655-.929zm3.386 1.328v-2.987c.016-1.859.548-4.166 2.539-4.166a2.73 2.73 0 0 1 1.012.183l.133-.73a3.06 3.06 0 0 0-1.145-.216 2.59 2.59 0 0 0-2.539 2.174v-2.008h-.763v7.75zm8.506-.581c-.886.024-1.742-.318-2.367-.946s-.962-1.487-.933-2.373c0-1.824 1.479-3.303 3.303-3.303s3.303 1.479 3.303 3.303a3.21 3.21 0 0 1-.934 2.374 3.22 3.22 0 0 1-2.371.945zm0 .747a4.04 4.04 0 1 0-3.499-6.062 4.04 4.04 0 0 0 3.5 6.062zm7.036-.166V12.076h-.747v12.165zm9.524 0h.763v-7.75h-.763v1.66a3.71 3.71 0 0 0-3.286-1.826 4.041 4.041 0 1 0 0 8.082 3.76 3.76 0 0 0 3.286-1.842zm-6.522-3.883c-.017-.866.317-1.703.927-2.319s1.443-.959 2.309-.95c.886-.008 1.736.344 2.356.977s.956 1.49.93 2.375a3.261 3.261 0 0 1-6.522-.083zm17.345-.001a3.26 3.26 0 1 1-3.236-3.269 3.23 3.23 0 0 1 3.236 3.269zm-6.522 2.207a3.76 3.76 0 0 0 3.286 1.842 4.041 4.041 0 1 0 0-8.082 3.71 3.71 0 0 0-3.286 1.826v-6.074h-.763v12.165h.763zM8.336 5.263l2.981 2.981-8.335 8.335-2.981-2.981z"/><path d="M27.85 21.459v1.663q0 4.011-1.943 6.077c-3.312 2.757-8.12 2.757-11.432 0q-1.922-2.067-1.922-6.077V5.263H8.336v17.571q0 5.871 3.018 8.889 3.018 3.018 8.848 3.02 5.787 0 8.827-3.039 3.04-3.039 3.039-8.868v-1.378z"/><path d="M8.336 5.263h4.216v33.456H8.336z"/></g><path d="M20.201 0v3.47c2.116-.158 4.199.593 5.726 2.067q1.922 2.067 1.922 6.077v11.779q.139 5.455 3.009 8.328 3.017 3.022 8.848 3.022v-3.475a7.44 7.44 0 0 1-5.726-2.069 8.45 8.45 0 0 1-1.913-5.806V11.9q0-5.871-3.018-8.889Q26.031-.007 20.201 0z" fill="#bf616a"/><path d="M80.767 30.976c.016.171.16.301.332.301s.315-.131.332-.301c-.01-.176-.155-.314-.332-.314s-.322.138-.332.314zm2.959-3.587c-.549-.05-1.052.311-1.182.847a1 1 0 0 0 .919 1.166l.543.128c.472.112.639.383.639.679 0 .431-.359.719-.927.719-.454.045-.874-.241-1-.679h-.336c.108.628.674 1.074 1.31 1.031.775 0 1.31-.431 1.31-1.07.006-.53-.392-.977-.919-1.031l-.535-.128c-.3-.072-.719-.24-.647-.767.106-.357.453-.586.823-.543.373-.032.711.217.791.583h.359c-.064-.573-.574-.989-1.148-.935zm2.707.076h-.367v5.536h.367v-2.6a1.8 1.8 0 0 0 1.582.871c1.074 0 1.946-.871 1.946-1.946s-.871-1.946-1.946-1.946a1.81 1.81 0 0 0-1.582.887zm3.14 1.877c.008.416-.153.818-.447 1.113a1.54 1.54 0 0 1-1.111.453c-.425.004-.834-.164-1.132-.467s-.461-.714-.45-1.139a1.57 1.57 0 0 1 3.14.04zm4.683 1.858h.368v-3.734h-.368v.8c-.329-.558-.934-.895-1.582-.879-1.074 0-1.946.871-1.946 1.946s.871 1.945 1.946 1.946a1.81 1.81 0 0 0 1.582-.887zm-3.14-1.869a1.55 1.55 0 0 1 .446-1.117c.293-.297.695-.462 1.112-.457a1.57 1.57 0 1 1-1.558 1.574zm7.559 1.234a1.64 1.64 0 0 1-1.039.359c-.876 0-1.586-.71-1.586-1.586s.71-1.586 1.586-1.586a1.71 1.71 0 0 1 1.039.352l.232-.272c-.363-.285-.81-.439-1.271-.439-1.074 0-1.945.871-1.945 1.946s.871 1.945 1.945 1.946c.465.006.918-.152 1.278-.447zm2.759-2.817c.381-.01.75.133 1.025.397s.432.628.437 1.009h-2.972a1.47 1.47 0 0 1 1.51-1.406zm1.829 1.574a1.79 1.79 0 0 0-1.829-1.933c-.944-.012-1.76.655-1.936 1.582s.339 1.847 1.221 2.182 1.878-.013 2.361-.824l-.344-.12c-.353.56-1.027.828-1.668.664s-1.103-.723-1.144-1.383h3.332a1.18 1.18 0 0 0 .007-.168z" fill="#3b4252"/></svg>