<svg xmlns="http://www.w3.org/2000/svg" width="103.263" height="38.719" version="1.1" id="svg48"><defs id="defs4"><style id="style2">.a{fill:#3b4252}.b{fill:#d8dee9}</style></defs><g id="g46"><g transform="translate(38.944 12.076)" id="g22"><path class="a" d="M849.5 361.265v-4.348a2.611 2.611 0 012.755-2.821 2.341 2.341 0 012.34 2.622v4.547h.747v-4.547a3.027 3.027 0 00-3.087-3.369 2.928 2.928 0 00-2.987 2.008 2.807 2.807 0 00-2.855-2.008 2.853 2.853 0 00-2.738 1.693v-1.527h-.763v7.75h.763v-4.348a2.591 2.591 0 012.738-2.821 2.341 2.341 0 012.34 2.622v4.547z" transform="translate(-842.914 -349.1)" id="path6"/><path class="a" d="M1164.435 284.991v7.75h-.747v-7.75zm-1.046-2.871a.635.635 0 00.664.614.615.615 0 100-1.228.635.635 0 00-.663.614z" transform="translate(-1148.583 -280.576)" id="path8"/><path class="a" d="M1240.665 359.937a3.4 3.4 0 01-2.157.747 3.294 3.294 0 010-6.589 3.557 3.557 0 012.157.73l.481-.564a4.27 4.27 0 00-2.639-.913 4.041 4.041 0 000 8.082 4.1 4.1 0 002.655-.929z" transform="translate(-1216.384 -349.1)" id="path10"/><path class="a" d="M1425.99 361.265v-2.987c.016-1.859.548-4.166 2.539-4.166a2.728 2.728 0 011.012.183l.133-.73a3.06 3.06 0 00-1.145-.216 2.589 2.589 0 00-2.539 2.174v-2.008h-.763v7.75z" transform="translate(-1398.323 -349.1)" id="path12"/><path class="a" d="M1542.3 360.683a3.213 3.213 0 01-3.3-3.319 3.3 3.3 0 016.605 0 3.213 3.213 0 01-3.305 3.319zm0 .747a4.041 4.041 0 100-8.082 4.041 4.041 0 100 8.082z" transform="translate(-1506.127 -349.099)" id="path14"/><path class="a" d="M1762.733 273.555V261.39h-.747v12.165z" transform="translate(-1719.524 -261.39)" id="path16"/><path class="a" d="M1833.892 361.264h.763v-7.75h-.763v1.66a3.708 3.708 0 00-3.286-1.826 4.041 4.041 0 000 8.082 3.757 3.757 0 003.286-1.842zm-6.522-3.883a3.206 3.206 0 013.236-3.269 3.257 3.257 0 013.286 3.352 3.261 3.261 0 01-6.522-.083z" transform="translate(-1781.159 -349.099)" id="path18"/><path class="a" d="M2068.152 269.671a3.262 3.262 0 11-3.236-3.269 3.231 3.231 0 013.236 3.269zm-6.522 2.207a3.757 3.757 0 003.286 1.842 4.041 4.041 0 000-8.082 3.708 3.708 0 00-3.286 1.826v-6.074h-.763v12.165h.763z" transform="translate(-2004.596 -261.39)" id="path20"/></g><path class="b" transform="rotate(45 -2.185 12.694)" id="rect24" fill="#3b4252" fill-opacity="1" d="M0 0h4.216v11.788H0z"/><path class="b" d="M199.933 130.116v1.663q0 4.011-1.943 6.077a8.934 8.934 0 01-11.432 0q-1.922-2.067-1.922-6.077V113.92h-4.217v17.571q0 5.871 3.018 8.889t8.848 3.02q5.787 0 8.827-3.039t3.039-8.868v-1.378z" transform="translate(-172.083 -108.657)" id="path26" fill="#3b4252" fill-opacity="1"/><path class="b" transform="translate(8.336 5.263)" id="rect28" fill="#3b4252" fill-opacity="1" d="M0 0h4.216v33.456H0z"/><path d="M437.24 0v3.47a7.445 7.445 0 015.726 2.067q1.922 2.067 1.922 6.077v11.779q.139 5.455 3.009 8.328 3.017 3.022 8.848 3.022v-3.475a7.442 7.442 0 01-5.726-2.069 8.448 8.448 0 01-1.913-5.806V11.9q0-5.871-3.018-8.889T437.24 0z" transform="translate(-417.039)" id="path30" fill="#bf616a"/><g transform="translate(80.767 27.389)" id="g44"><path class="a" d="M1748.15 664.032a.333.333 0 00.663 0 .332.332 0 00-.663 0z" transform="translate(-1748.15 -660.445)" id="path32"/><path class="a" d="M1784.492 592.824a1.113 1.113 0 00-1.182.847 1 1 0 00.919 1.166l.543.128c.472.112.639.383.639.679 0 .431-.359.719-.927.719a.944.944 0 01-1-.679h-.336a1.245 1.245 0 001.31 1.031c.775 0 1.31-.431 1.31-1.07a1.024 1.024 0 00-.919-1.031l-.535-.128c-.3-.072-.719-.24-.647-.767a.767.767 0 01.823-.543.744.744 0 01.791.583h.359a1.056 1.056 0 00-1.148-.935z" transform="translate(-1781.533 -592.824)" id="path34"/><path class="a" d="M1863.213 592.9h-.367v5.536h.367v-2.6a1.8 1.8 0 001.582.871 1.945 1.945 0 000-3.891 1.809 1.809 0 00-1.582.887zm3.14 1.877a1.537 1.537 0 01-1.558 1.566 1.566 1.566 0 01-1.582-1.606 1.57 1.57 0 013.14.04z" transform="translate(-1857.547 -592.824)" id="path36"/><path class="a" d="M1967.706 596.634h.368V592.9h-.368v.8a1.785 1.785 0 00-1.582-.879 1.945 1.945 0 000 3.891 1.808 1.808 0 001.582-.887zm-3.14-1.869a1.543 1.543 0 011.558-1.574 1.568 1.568 0 011.582 1.614 1.57 1.57 0 01-3.14-.04z" transform="translate(-1954.217 -592.823)" id="path38"/><path class="a" d="M2074.232 596a1.641 1.641 0 01-1.039.359 1.586 1.586 0 010-3.172 1.714 1.714 0 011.039.352l.232-.272a2.057 2.057 0 00-1.271-.439 1.945 1.945 0 000 3.891 1.975 1.975 0 001.278-.447z" transform="translate(-2056.324 -592.824)" id="path40"/><path class="a" d="M2156.722 593.183a1.424 1.424 0 011.462 1.406h-2.972a1.47 1.47 0 011.51-1.406zm1.829 1.574a1.79 1.79 0 00-1.829-1.933 1.945 1.945 0 101.646 2.94l-.344-.12a1.525 1.525 0 01-2.812-.719h3.332a1.205 1.205 0 00.007-.168z" transform="translate(-2136.055 -592.824)" id="path42"/></g></g></svg>