<svg version="1.1" id="Vrstva_1" xmlns="http://www.w3.org/2000/svg" xmlns:xlink="http://www.w3.org/1999/xlink" x="0" y="0" viewBox="0 0 390.6 91.3" xml:space="preserve"><style>.st2{fill:#fff}</style><linearGradient id="SVGID_1_" gradientUnits="userSpaceOnUse" x1="17.237" y1="23.546" x2="89.276" y2="79.643"><stop offset="0" stop-color="#ffd62c"/><stop offset="1" stop-color="#ffa403"/></linearGradient><path fill="url(#SVGID_1_)" d="M0 0h91.3v91.3H0z"/><path fill="#ffd62c" d="M100.1 0h290.5v91.3H100.1z"/><path d="M123.8 29.3c0 1.7 1.5 2.6 4.1 3.7 3.4 1.5 5.3 2.5 5.3 5.4 0 3-2.3 4.7-5.1 4.7-1.8 0-3.2-.7-4.1-1.7-.6.1-1.1.8-1.2 1.6h-.5l-.2-5.9h.6c.2 3.4 2.7 5.4 5.4 5.4 2.1 0 3.5-1.2 3.5-3 0-2-1.4-2.7-4.7-4-2.7-1.1-4.5-2.3-4.5-4.9 0-2.6 2-4.3 4.6-4.3 1.8 0 3 .8 3.8 1.6.6-.1 1.1-.8 1.1-1.6h.5l.2 5.8h-.6c-.3-2.9-2.3-5.2-5.2-5.2-1.7 0-3 .8-3 2.4zM148.9 31.9h-.6l-.1-.9c-.1-2-.9-3.7-3.9-3.7H143v14.8h2.3v.6h-6.9v-.6h2.3V27.3h-1.3c-2.7 0-3.8 1.3-3.9 3.7v.9h-.6l.2-5.2h13.5l.3 5.2zM166.6 27.3h-.1c-1.9 0-2.5 1.2-2.5 4.4v5.2c0 4.6-2.2 6.2-5.7 6.2s-5.8-1.7-5.8-5.8v-10h-2.3v-.6h6.8v.6h-2.2v10.1c0 3.4 1.2 5 4 5 2.9 0 4.5-1.7 4.5-5.5v-5.2c0-3.3-.5-4.4-2.5-4.4h-.1v-.6h6v.6zM183.4 34.8c0 3.8-2.3 7.9-8.1 7.9h-7.4v-.6h2.3V27.3h-2.3v-.6h6.8c5.8 0 8.7 3.8 8.7 8.1zm-10.9-7.5v14.8h2.9c4.5 0 5.4-3.6 5.4-7.1 0-4-1.2-7.6-6-7.6h-2.3zM189.4 42.1h2.3v.6h-6.9v-.6h2.3V27.3h-2.3v-.6h6.9v.6h-2.3v14.8zM202.2 26.7v.6H200v11.6c0 4.3-1.5 7-4.5 7-2.1 0-3-1.4-3-2.6 0-1 .6-1.7 1.5-1.7.8 0 1.4.6 1.4 1.4 0 .7-.5 1.2-1.2 1.2-.6 0-1-.5-1.1-.9 0 .9.7 1.9 2.4 1.9 1.6 0 2.7-1 2.7-3.2 0-.8-.2-1.9-.5-3.2V27.3h-2.3v-.6h6.8zM220.5 26.7v.6h-.1c-1.9 0-2.5 1.1-2.5 4.5v10.9h-1.1l-9.9-14.1v9.1c0 3.3.6 4.5 2.5 4.5h.1v.6h-6v-.6h.1c1.9 0 2.5-1.1 2.5-4.5v-9.9l-.3-.4h-2v-.6h4.5l8.8 12.5v-7.5c0-3.4-.7-4.5-2.5-4.5h-.2v-.6h6.1zM226.4 42.1h2.3v.6h-6.9v-.6h2.3V27.3h-2.3v-.6h6.9v.6h-2.3v14.8zm1.2-21.2c.4 0 .7.3.7.7 0 .4-.3.7-.7 1.1l-2.8 2.7-.3-.2 2-3.4c.5-.6.7-.9 1.1-.9zM126.2 69.4h2.3v.6h-6.9v-.6h2.3V54.6h-2.3V54h6.9v.6h-2.3v14.8zM146.9 54v.6h-.1c-1.9 0-2.5 1.1-2.5 4.5V70h-1.1l-9.9-14.1V65c0 3.3.6 4.5 2.5 4.5h.1v.5h-6v-.6h.1c1.9 0 2.5-1.1 2.5-4.5V55l-.3-.4h-2V54h4.5l8.8 12.5V59c0-3.4-.7-4.5-2.5-4.5h-.2V54h6.1zM148.2 70v-.6h2.3V54.6h-2.3V54h12.1l.2 5.3h-.6l-.1-1.1c-.1-2.1-.9-3.6-4.2-3.6h-2.8v7.2h.8c.5 0 1.1 0 1.4-.1.9-.2 1.3-1.2 1.4-2.7h.6v6.2h-.6c-.1-1.7-.5-2.5-1.4-2.7-.4-.1-1-.1-1.5-.1h-.8v7h2.5v.6h-7zM177.4 62c0 4-2.9 8.4-7.5 8.4s-7.5-4.4-7.5-8.4 2.9-8.4 7.5-8.4 7.5 4.4 7.5 8.4zm-7.6-7.8c-3.7 0-5 3.9-5 7.8s1.3 7.8 5 7.8 5-3.9 5-7.8-1.3-7.8-5-7.8zM193.5 67.2c-.1 2-.7 3.1-2.2 3.1-2 0-2.6-1.9-2.9-4.4-.3-3.2-1-3.4-5.1-3.6v7.1h2.3v.6h-6.9v-.6h2.3V54.6h-2.3V54h6.6c3.5 0 5.7 1.5 5.7 4 0 2.9-2.9 3.9-5.2 4 4.1.2 5 1.4 5.1 4.7 0 1.5.2 2.7.9 2.7s1.1-1 1.1-2.4l.6.2zm-8.9-5.5c.9 0 1.7-.1 2.4-.4 1.1-.5 1.5-1.7 1.5-3.1 0-2.8-1.7-3.6-3.7-3.6h-1.4v7.1h1.2zM211.2 54.6v14.8h2.3v.6h-6.9v-.6h2.3V54.9L203.6 70h-.6l-5.5-14.7v9.6c0 3.3.5 4.5 2.5 4.5h.2v.6h-6v-.6h.1c1.9 0 2.6-1.1 2.6-4.5V54.6h-2.4V54h5.1l4.6 12.3 4.3-12.3h5v.6h-2.3zM230 69.4v.6h-6.1v-.6h1.9l-1.8-5h-5.1c-.5 1.6-.8 2.7-.8 3.5 0 1.4.8 1.5 1.9 1.5h.2v.6h-5.7v-.6c1.6 0 2.2-.6 3.3-4l4.1-11.6h.6l5.7 15.6h1.8zm-6.2-5.6l-2.4-6.6-2.3 6.6h4.7zM237.5 54.2c-3.4 0-4.8 3.8-4.8 7.8 0 3.9 1.4 7.8 4.9 7.8 2.8 0 4.6-2.6 4.9-5.4h.6l-.2 5.9h-.5c-.1-.9-.6-1.6-1.1-1.8-1 1.2-2.3 1.8-3.9 1.8-4.3 0-7.3-4.4-7.3-8.5 0-4.2 3.2-8.3 7.3-8.3 1.7 0 2.9.7 3.8 1.6.7-.2 1.1-1 1.2-1.6h.5l.2 5.7h-.6c-.3-3.2-2.7-5-5-5zm.8-3.3l1.5-1.9h.6l-2.5 3.2h-.4L235 49h1.9l1.4 1.9zM262.2 54v.6h-.1c-1.9 0-2.5 1.1-2.5 4.5V70h-1.1l-9.9-14.1V65c0 3.3.6 4.5 2.5 4.5h.1v.5h-6v-.6h.1c1.9 0 2.5-1.1 2.5-4.5V55l-.3-.4h-2V54h4.5l8.8 12.5V59c0-3.4-.7-4.5-2.5-4.5h-.2V54h6.1zM268.2 69.4h2.3v.6h-6.9v-.6h2.3V54.6h-2.3V54h6.9v.6h-2.3v14.8zm1.1-21.2c.4 0 .7.3.7.7 0 .4-.3.7-.7 1.1l-2.8 2.7-.3-.3 2-3.4c.5-.5.7-.8 1.1-.8zM280.6 56.6c0 1.7 1.5 2.6 4.1 3.7 3.4 1.5 5.3 2.5 5.3 5.4 0 3-2.3 4.7-5.1 4.7-1.8 0-3.2-.7-4.1-1.7-.6.1-1.1.8-1.2 1.6h-.5l-.2-5.9h.6c.2 3.4 2.7 5.4 5.4 5.4 2.1 0 3.5-1.2 3.5-3 0-2-1.4-2.7-4.7-4-2.7-1.1-4.5-2.3-4.5-4.9 0-2.6 2-4.3 4.6-4.3 1.8 0 3 .8 3.8 1.6.6-.1 1.1-.8 1.1-1.6h.5l.2 5.8h-.6c-.3-2.9-2.3-5.2-5.2-5.2-1.8 0-3 .9-3 2.4zM306.1 54.6c-1.2 0-2.1.5-4.1 4.1l-2.4 4.2v6.5h2.3v.6H295v-.6h2.3v-6.2l-4.4-8.6h-1.8V54h6.2v.6h-1.9l3.9 7.6 1.9-3.4c.9-1.6 1.2-2.5 1.2-3.2 0-.7-.5-1.1-1.5-1.1h-.4V54h5.8v.6h-.2zM308.7 56.6c0 1.7 1.5 2.6 4.1 3.7 3.4 1.5 5.3 2.5 5.3 5.4 0 3-2.3 4.7-5.1 4.7-1.8 0-3.2-.7-4.1-1.7-.6.1-1.1.8-1.2 1.6h-.5l-.2-5.9h.6c.2 3.4 2.7 5.4 5.4 5.4 2.1 0 3.5-1.2 3.5-3 0-2-1.4-2.7-4.7-4-2.7-1.1-4.5-2.3-4.5-4.9 0-2.6 2-4.3 4.6-4.3 1.8 0 3 .8 3.8 1.6.6-.1 1.1-.8 1.1-1.6h.5l.2 5.8h-.6c-.3-2.9-2.3-5.2-5.2-5.2-1.7 0-3 .9-3 2.4zM333.8 59.3h-.6l-.1-.9c-.1-2-.9-3.7-3.9-3.7H328v14.8h2.3v.5h-6.9v-.6h2.3V54.6h-1.3c-2.7 0-3.8 1.3-3.9 3.7v.9h-.6l.2-5.2h13.5l.2 5.3zM348 64.4l-.3 5.6h-12.4v-.6h2.3V54.6h-2.3V54h12.2l.2 5.3h-.6l-.1-1.1c-.1-2.1-.9-3.6-4.2-3.6H340v7h.9c.5 0 1.1 0 1.5-.1.9-.2 1.3-1.2 1.4-2.7h.6V65h-.6c-.1-1.7-.5-2.5-1.4-2.7-.4-.1-.9-.1-1.5-.1h-.9v7.2h3c3.1 0 4.2-1.4 4.3-3.8l.1-1.2h.6zm-3.5-16.2c.4 0 .7.3.7.7 0 .4-.3.7-.7 1.1l-2.8 2.7-.3-.3 2-3.4c.5-.5.7-.8 1.1-.8zM366.8 54.6v14.8h2.3v.6h-6.9v-.6h2.3V54.9L359.2 70h-.6l-5.5-14.7v9.6c0 3.3.5 4.5 2.5 4.5h.2v.6h-6v-.6h.1c1.9 0 2.6-1.1 2.6-4.5V54.6h-2.4V54h5.1l4.6 12.3 4.3-12.3h5v.6h-2.3z"/><g><image width="83" height="48" xlink:href="3D219173.png" transform="translate(4.274 21.311)" overflow="visible" opacity=".4"/><path class="st2" d="M29.9 53.8c0-1.3-.5-2.3-1.4-3.1-.9-.7-2.6-1.5-5.1-2.2-2.4-.8-4.4-1.6-5.8-2.3-3.9-2.1-5.8-4.9-5.8-8.5 0-1.8.5-3.5 1.6-4.9 1-1.4 2.5-2.6 4.5-3.4 1.9-.8 4.1-1.2 6.5-1.2 2.4 0 4.6.4 6.5 1.3 1.9.9 3.4 2.1 4.4 3.7 1.1 1.6 1.6 3.4 1.6 5.5h-7c0-1.6-.5-2.8-1.5-3.6-1-.9-2.4-1.3-4.1-1.3-1.7 0-3.1.4-4 1.1-1 .7-1.4 1.7-1.4 2.9 0 1.1.6 2 1.7 2.8 1.1.7 2.8 1.5 4.9 2.1 4 1.2 6.9 2.7 8.7 4.5s2.7 4 2.7 6.7c0 3-1.1 5.3-3.4 6.9-2.2 1.7-5.2 2.5-9 2.5-2.6 0-5-.5-7.2-1.4s-3.8-2.3-4.9-3.9c-1.1-1.7-1.7-3.6-1.7-5.8h7.1c0 3.8 2.2 5.6 6.7 5.6 1.7 0 3-.3 3.9-1 1.1-.9 1.5-1.8 1.5-3zM49.2 62.7h-7V28.6h7v34.1zM73.4 53.8c0-1.3-.5-2.3-1.4-3.1-.9-.7-2.6-1.5-5.1-2.2-2.4-.8-4.4-1.6-5.8-2.3-3.9-2.1-5.8-4.9-5.8-8.5 0-1.8.5-3.5 1.6-4.9 1-1.4 2.5-2.6 4.5-3.4 1.9-.8 4.1-1.2 6.5-1.2 2.4 0 4.6.4 6.5 1.3 1.9.9 3.4 2.1 4.4 3.7 1.1 1.6 1.6 3.4 1.6 5.5h-7c0-1.6-.5-2.8-1.5-3.6-1-.9-2.4-1.3-4.1-1.3-1.7 0-3.1.4-4 1.1-1 .7-1.4 1.7-1.4 2.9 0 1.1.6 2 1.7 2.8 1.1.7 2.8 1.5 4.9 2.1 4 1.2 6.9 2.7 8.7 4.5s2.7 4 2.7 6.7c0 3-1.1 5.3-3.4 6.9-2.2 1.7-5.2 2.5-9 2.5-2.6 0-5-.5-7.2-1.4S57 59.6 55.9 58c-1.1-1.7-1.7-3.6-1.7-5.8h7.1c0 3.8 2.2 5.6 6.7 5.6 1.7 0 3-.3 3.9-1 1.1-.9 1.5-1.8 1.5-3z"/></g></svg>