<svg xmlns="http://www.w3.org/2000/svg" width="116.379" height="42.141"><defs><style>.a{fill:#257fa2}.a,.c{fill-rule:evenodd}.b{fill:#d8dee9}.c{fill:#b6d0dc}</style></defs><path class="a" d="M30.983 27.195a25.06 25.06 0 01-12.319-2.963c-5.107-2.985-6.39-7.34-3.825-10.988l1.225-1.327 7.23.31h.088l-1.327 1.039c-2.7 2.609-2.255 6.168 1.349 8.468a13.871 13.871 0 007.429 1.968 14.07 14.07 0 007.429-1.968c3.582-2.3 4.046-5.859 1.349-8.49l-1.26-.995 3.4-.044 4.333-.177 1.08 1.216c2.543 3.67 1.282 8.026-3.825 10.988a25.354 25.354 0 01-12.359 2.963z"/><path class="a" d="M60.366 11.743l-.376-.6-.663.066-6.146.442.774 1.238c2.432 4.643.4 9.861-6.058 13.531a28.129 28.129 0 01-6.014 2.476h11.1c7.98-4.686 10.434-11.275 7.383-17.153zM19.836 28.896a28.13 28.13 0 01-6.014-2.476C6.769 22.44 5 16.581 8.538 11.651l.177-.221-3.047-.219-3.825-.4-.575.929c-3.051 5.859-.6 12.47 7.362 17.157zM61.582 28.897h8c6.168-5.748 7.561-12.624 4.157-18.881l-.284-.443-5.837.774-1.105.111.641.973c3.25 5.858 1.392 12.358-5.572 17.466zM76.926 28.875h7.5c5.306-6.589 6.08-13.951 2.3-20.761l-.486-.73-3.272.685-3.383.575.508.774c3.598 6.391 2.533 13.377-3.167 19.457zM91.651 28.897h7.561c4.643-7.318 4.93-15.255.862-22.662l-1.3-1.99-2.454.752-4.046 1.017.929 1.415c3.887 7.03 3.356 14.616-1.552 21.468zM106.332 28.875h6.987c4.908-9.441 3.913-19.589-2.985-28.742L110.223 0l-2.852 1.3-2.874 1.066 2.056 3.14a22.732 22.732 0 01-.221 23.369z"/><g><path class="b" d="M18.734 38.294c-.8 2.631-3.648 3.825-6.788 3.825a8.944 8.944 0 01-5.328-1.415 4.951 4.951 0 01-2.145-4.068 5.333 5.333 0 011.924-4.09 8.283 8.283 0 015.262-1.68c4.4 0 7.1 2.322 7.1 5.881v.575h-8.91a1.76 1.76 0 002.012 2.012c1.172 0 1.813-.376 2.012-1.3zm-5.2-3.073a1.628 1.628 0 00-1.857-1.857 1.677 1.677 0 00-1.835 1.857zM28.241 20.85v11.143a4.933 4.933 0 00-3.162-1.105c-3.98 0-5.284 2.9-5.284 5.682 0 2.675 1.327 5.572 5.129 5.572a3.7 3.7 0 003.515-1.658h.044v1.437h4.864V20.983a3.978 3.978 0 01-5.106-.133zm-.31 17.909a1.357 1.357 0 01-1.15.553c-1.614 0-1.68-1.7-1.68-2.653a8.974 8.974 0 01.265-2.012 1.347 1.347 0 011.459-1.15 1.518 1.518 0 011.105.42 1.7 1.7 0 01.31 1.26v2.189a1.93 1.93 0 01-.309 1.393zM43.497 41.92v-1.769h-.044c-.553 1.393-2.3 1.99-4.024 1.99a4.993 4.993 0 01-2.963-.818 3.157 3.157 0 01-1.039-2.737v-7.473h5.129v6.544c0 .707-.022 1.437 1.15 1.437a1.459 1.459 0 001.238-.619 1.926 1.926 0 00.265-1.15v-6.239h5.129v10.811h-4.841z"/><path class="c" d="M55.391 33.32a3.035 3.035 0 013.449-2.432l.708.044v3.781a4.728 4.728 0 00-.995-.111 2.418 2.418 0 00-2.1.752 3.341 3.341 0 00-.354 1.857v4.709h-5.13V31.109h4.378v2.233h.044zM74.847 36.613c0 3.272-3.228 5.527-7.274 5.527s-7.274-2.255-7.274-5.527c0-3.471 3.139-5.726 7.274-5.726s7.274 2.255 7.274 5.726zm-9.065-.155c0 2.9.862 3.117 1.791 3.117s1.791-.221 1.791-3.117c0-1.039-.022-2.918-1.791-2.918s-1.791 1.879-1.791 2.919zM84.951 41.919a5.71 5.71 0 01-.177-1.5 5.242 5.242 0 01-4.333 1.725c-2.454 0-4.621-1.105-4.621-3.25 0-1.725 1.636-2.852 3.471-3.316a27.42 27.42 0 015.218-.685v-.111c0-.973-.31-1.349-1.548-1.349-1.017 0-1.857.287-2.012 1.216l-4.709-.354c.774-2.7 3.913-3.383 6.9-3.383a10.423 10.423 0 014.842.929c1.747.995 1.526 2.388 1.526 3.935v3.781a4.89 4.89 0 00.42 2.366zm-.442-5.063c-1.238.111-3.316.42-3.316 1.747 0 .707.553.995 1.349.995 1.946 0 1.968-1.327 1.968-2.52zM96.139 31.108v1.459h.044a4.154 4.154 0 013.6-1.68 4.239 4.239 0 013.736 1.68 4.543 4.543 0 013.958-1.68 4.834 4.834 0 013.073.929c.951.8.951 1.857.951 3.007v7.1h-5.019v-6.5c0-.707.111-1.481-1.083-1.481-1.459 0-1.393 1.105-1.393 1.968v6.014h-5.019v-6.5c0-.685-.044-1.548-1.172-1.548-1.216 0-1.327.752-1.327 1.548v6.5h-5.014V31.108z"/><path d="M33.26 19.899a3.361 3.361 0 110-4.753 3.376 3.376 0 010 4.753z" fill="#fff" fill-rule="evenodd"/></g></svg>