<svg version="1.1" id="Vrstva_1" xmlns="http://www.w3.org/2000/svg" x="0" y="0" viewBox="0 0 1137.2 315.2" xml:space="preserve"><style>.st4{fill:#cf392e}.st5{fill:#4585f2}</style><path d="M496.9 237.8c6.5-1.4 13.7-3.1 15.9-3.9l4-1.4.3-41.3.2-41.2h-66.5v31.8h27.8v23.8l-2.7.7c-1.6.4-7.4.8-13.2.8-8.7 0-11.2-.4-15.4-2.3-13.3-6.1-20.3-19.9-20.3-40.5 0-5 .5-11.6 1.1-14.9 2.5-13.8 11-24.9 22.3-29.1 11-4.2 32.4-2.5 46.5 3.8 3.1 1.4 4.5 1.6 4.8.8.3-.7 3.2-7.8 6.5-16 3.3-8 5.8-15.1 5.5-15.6-.7-1.1-13.9-5.3-23.7-7.4-5.9-1.3-12.4-1.7-25.3-1.7-15.5 0-18.4.3-26.9 2.5-26.5 7.1-43.2 23.3-50.7 49.1-2 6.8-2.3 9.9-2.3 26.6 0 22.4 1.4 29.8 8 43.1 9.1 18.1 23.9 29.4 44.6 34.1 11.2 2.4 43.9 1.4 59.5-1.8zm239.6 1.8c6.1-.8 15.9-2.7 21.6-4.3l10.4-2.7.3-41.3.2-41.4h-66.4v31.8h27.8v11.8c0 13.8.9 12.8-12.4 13.7-18.4 1.2-30.2-5.8-36.2-21.2-3.1-8.2-4.4-21-3.1-31.2 2.5-19.2 10-30 24.4-35 9.8-3.3 28.9-1.8 43.4 3.6 3.2 1.2 5.9 2 6.1 1.7.2-.2 3.3-7.4 6.8-16l6.3-15.6-3.6-1.6c-6.9-3-22.5-6.4-34.1-7.5-9-.9-14.4-.9-23.7 0-42.4 4.3-66.5 29.4-68.9 72-1.1 18.7 1.8 35.1 8.5 48.7 9.3 19 23.7 29.9 45.3 34.6 9.3 1.7 33.2 1.8 47.3-.1zm232.4-1.7c5-1.4 10.2-3.1 11.7-3.8l2.7-1.2v-17.3c0-9.9-.4-17.2-.9-17.2s-4.5 1.3-8.7 2.9c-25.4 9.3-45.1 7.6-54.4-4.6-12-15.8-12.1-49.6-.1-67.4 9.6-14.2 28.2-15.2 56.3-2.9 1.3.5 2.7-2.3 7.6-15.1 3.4-8.6 6.1-16.1 6.1-16.5 0-1.2-10.3-5.4-18.5-7.5-27.4-7.1-54.5-4-72.9 8.7-21.8 15.1-33 44.9-29.6 79 3.7 36.4 20.5 57.5 51.3 64.4 10.9 2.6 37.8 1.7 49.4-1.5zm-341.6-15.6v-16.9h-49.6v-28.8h45.6V143h-45.6v-23.8h49.6V85.4h-91.2V239h91.2v-16.7zm414.5-11v-27.8l5.3.3 5.2.3 15.9 27.5 15.9 27.5 23.6.1c18.6 0 23.5-.3 22.9-1.2-.4-.7-10.1-15.3-21.5-32.3-11.3-17.2-20.8-31.6-21.1-32.2-.2-.7 1.6-2.5 4.1-4 6-3.9 13.7-12.5 16.8-18.9 7.8-16.6 4.3-38.9-8-50.2-13.1-12-27.2-14.8-73.9-14.9h-26.6v153.6h41.6v-27.8zM965.6 65.4c3.6-4.6 9.7-11.6 13.6-15.9 3.9-4.2 7-8.2 7-9.1 0-1.4-1.8-1.6-13.5-1.6h-13.4l-5.7 3.9c-3.1 2.1-7.8 5.7-10.4 7.8l-4.9 4-10-7.8-10.1-7.8h-13.6c-11.6-.1-13.6.1-13.6 1.5 0 .8 4.3 6.2 9.5 12.1 5.4 5.9 11.4 12.9 13.6 15.8l3.9 5.3h41c.1 0 6.6-8.2 6.6-8.2z" fill="#6c6d6d"/><path d="M1041.8 134.3v-17.6l8.7.5c9.2.6 13 1.9 17.1 6.2 2 2.1 2.5 3.8 2.8 9.2.6 12.8-6.2 19-20.8 19h-7.7v-17.3z" fill="#fff"/><path d="M170.2 310.9c13.5-4.2 132.3-30.5 134.8-39.5 0 0 1.4-169.1 2-202.4-1.7-1.9-4.4-4.7-6.8-4.6-2 0-31.7 7.3-42.2 10.5 0 0-.5 140.6-1.1 140.6-43.9 0-80.4 33.6-87.9 78.9-3 14.7-4.6 15.9-13.2 17.6 4.3.5 7.7.1 14.4-1.1z" fill="#069550"/><path d="M143.5 310.9c6.7 1.1 10 1.6 14.5 1.3-8.6-1.7-10.2-2.9-13.2-17.6-7.3-45.3-43.8-78.9-87.9-78.9-.6 0-1.1-140.6-1.1-140.6C45.3 72 15.6 64.5 13.6 64.5c-2.5-.1-5.2 2.7-6.8 4.6.6 33.3 2 202.4 2 202.4 2.3 8.9 121.2 35.3 134.7 39.4z" fill="#f6c33c"/><path class="st4" d="M159.9 312.3c-.2 0-.4.1-.6 0 .2.1.4 0 .6 0zM180.7 262z"/><path class="st4" d="M258.7 2.8c-.9 68-1.5 146.4-1.3 213.2-29.4 0-56 14.1-72.9 39.8-.7 1-1.4 2.1-2 3.1-7.1 11.5-10.9 23.4-13.6 37-2.4 10.9-3.1 17.2-12.7 16.7.1-53-.4-179 1-215.2 2.7-53.1 49.7-94.6 101.5-94.6z"/><path class="st4" d="M157.2 101.3v1.2l-.1.1.1-1.3z"/><g><path class="st5" d="M153.7 312.3c.2 0 .4.1.6 0-.2.1-.4 0-.6 0zM132.9 262z"/><path class="st5" d="M54.7 2.8c.9 68 1.5 146.4 1.3 213.2 29.4 0 56 14.1 72.9 39.8.7 1 1.4 2.1 2 3.1 7.1 11.5 10.9 23.4 13.6 37 2.4 10.9 3.1 17.2 12.7 16.7-.1-53 .4-179-1-215.2-2.5-53.1-49.6-94.6-101.5-94.6zM156.4 101.3v1.2l.1.1-.1-1.3z"/></g></svg>