<svg xmlns="http://www.w3.org/2000/svg" width="150" height="38"><defs><style>.a{fill:#f98012}</style></defs><path class="a" d="M35.308 37.34v-13.2q0-4.138-3.414-4.139t-3.421 4.139v13.2H21.75v-13.2q0-4.138-3.361-4.139-3.42 0-3.414 4.139v13.2H8.25V23.363a7.62 7.62 0 013-6.538 11.631 11.631 0 017.139-1.981q4.561 0 6.72 2.34 1.86-2.34 6.781-2.34a11.62 11.62 0 017.137 1.981 7.621 7.621 0 013 6.538v13.978zM117.61 37.279V0h6.725v37.279zM109.044 37.283v-2.2a6.149 6.149 0 01-3.061 1.9 11.429 11.429 0 01-3.664.652 9.832 9.832 0 01-7.715-3.266 11.7 11.7 0 01-2.912-8.069 11.507 11.507 0 012.853-7.957 10.2 10.2 0 017.594-3.206c3.562 0 5.642 1.326 6.905 2.849V0h6.544v37.283zm0-12.407a4.746 4.746 0 00-1.707-3.415 5.089 5.089 0 00-3.511-1.633 4.773 4.773 0 00-4.082 2.078 7.533 7.533 0 00-1.322 4.512 7.43 7.43 0 001.322 4.453 4.723 4.723 0 004.082 2.137 5.625 5.625 0 003.396-1.454 3.974 3.974 0 001.829-3z"/><path class="a" d="M79.037 37.879a11.6 11.6 0 01-8.435-3.242 12.108 12.108 0 010-16.692 11.585 11.585 0 018.435-3.242 11.71 11.71 0 018.466 3.242 12.038 12.038 0 010 16.692 11.708 11.708 0 01-8.466 3.242zm0-17.772a4.3 4.3 0 00-3.737 1.841 8.055 8.055 0 00-.086 8.656 4.676 4.676 0 007.655 0 7.071 7.071 0 001.275-4.283 7.3 7.3 0 00-1.219-4.283 4.524 4.524 0 00-3.888-1.934z"/><path class="a" d="M54.735 37.879a11.606 11.606 0 01-8.437-3.242 12.118 12.118 0 010-16.692 11.584 11.584 0 018.437-3.242 11.715 11.715 0 018.466 3.242 12.042 12.042 0 010 16.692 11.711 11.711 0 01-8.466 3.242zm0-17.772a4.308 4.308 0 00-3.738 1.841 8.055 8.055 0 00-.087 8.657 4.678 4.678 0 007.656 0 7.08 7.08 0 001.273-4.283 7.3 7.3 0 00-1.219-4.283 4.517 4.517 0 00-3.885-1.935zM132.287 28.333c.144 1.6 2.225 5.044 5.646 5.044 3.329 0 4.9-1.923 4.983-2.7l7.084-.061c-.773 2.364-3.913 7.386-12.192 7.386a12.692 12.692 0 01-8.856-3.213 12.185 12.185 0 010-16.871 12.409 12.409 0 018.8-3.152 11.384 11.384 0 019.185 3.9q3.064 3.6 3.063 9.666zm10.988-4.145a6.686 6.686 0 00-1.8-3.543 5.056 5.056 0 00-3.6-1.5 4.717 4.717 0 00-3.514 1.441 7.277 7.277 0 00-1.89 3.6z"/><path d="M21.3 14.004l6.674-4.877-.085-.3C15.849 10.306 10.373 11.352 0 17.37l.1.273.824.009a42.288 42.288 0 00-.039 5.968c-1.154 3.326-.033 5.588 1.021 8.05a24.072 24.072 0 00-.636-8.155 40.953 40.953 0 01.045-5.864l6.876.066a31.455 31.455 0 00.2 4.031A12.822 12.822 0 0024 16.417a26.288 26.288 0 00-2.7-2.413z" fill="#333"/></svg>