<svg xmlns="http://www.w3.org/2000/svg" width="152.551" height="38"><defs><style>.a{fill:#00679b}.b{fill:#4e4e4e}</style></defs><path class="a" d="M20.874 11.339c-.074 5.245-3.294 10.492-10.418 10.492C3.294 21.831 0 16.699 0 11.375 0 6.013 3.409.651 10.456.651c6.971 0 10.456 5.362 10.418 10.688zm-17.12.077c.076 3.33 1.876 6.894 6.664 6.894s6.588-3.6 6.626-6.932c.076-3.412-1.839-7.241-6.626-7.241-4.749 0-6.741 3.868-6.664 7.277zM34.777 21.371v-7.468c0-2.183-1.187-3.83-3.447-3.83a3.757 3.757 0 00-3.639 4.022v7.315h-3.562V7.047h3.179l.232 1.954a6.492 6.492 0 014.712-2.146c3.369 0 6.052 2.528 6.052 7.009v7.506zM44.582 4.557h-6.435V1.072h16.7v3.485h-6.435v16.815h-3.83zM61.663 1.072v7.966a5.28 5.28 0 014.481-2.145c4.06 0 5.86 2.758 5.86 6.971v7.545h-3.526v-7.545c0-2.6-1.379-3.718-3.253-3.718a3.636 3.636 0 00-3.524 3.907v7.319h-3.523v-20.3zM78.784 15.473c.232 1.762 1.762 3.064 4.252 3.064a5.889 5.889 0 003.83-1.341l2.26 2.221a8.791 8.791 0 01-6.166 2.336c-4.941 0-7.851-3.064-7.851-7.622 0-4.366 2.949-7.469 7.584-7.469 4.788 0 7.775 2.949 7.239 8.848H78.784zm7.775-2.911c-.232-1.839-1.685-2.8-3.718-2.8a3.87 3.87 0 00-4.022 2.8zM107.049 21.411v-8.2h-10v8.2h-3.825v-20.3h3.83V9.65h10V1.111h3.792v20.3zM117.545 7.086v7.469c0 2.183 1.187 3.83 3.447 3.83a3.757 3.757 0 003.639-4.022V7.086h3.526V21.41h-3.174l-.232-1.954a6.353 6.353 0 01-4.826 2.145c-3.409 0-5.937-2.566-5.937-7.009V7.086zM134.856 1.111v7.928c.843-1.493 3.179-2.3 4.711-2.3 4.175 0 7.277 2.566 7.277 7.469 0 4.711-3.179 7.469-7.354 7.469a5.143 5.143 0 01-4.6-2.3l-.232 1.992h-3.287V1.111zm.232 13.1a4.1 4.1 0 108.2 0 3.95 3.95 0 00-4.06-4.175 4.08 4.08 0 00-4.139 4.175zM149.679 0a2.873 2.873 0 11-2.873 2.873A2.894 2.894 0 01149.679 0zm0 5.209a2.375 2.375 0 10-2.373-2.375 2.375 2.375 0 002.375 2.375zm-1.073-3.983h1.264c.8 0 1.149.344 1.149 1a.863.863 0 01-.8.919l.843 1.379h-.656l-.8-1.341h-.421v1.336h-.579zm.574 1.417h.421c.383 0 .766-.038.766-.459s-.421-.459-.766-.459h-.421z"/><path class="b" d="M93.262 25.815h.8v4.481h.038a2.753 2.753 0 012.221-1.111 2.988 2.988 0 010 5.975 2.753 2.753 0 01-2.221-1.111h-.038v.957h-.8zm3.064 4.1a2.249 2.249 0 00-2.3 2.26 2.225 2.225 0 002.3 2.26 2.1 2.1 0 002.145-2.26 2.123 2.123 0 00-2.145-2.26zM102.493 34.05l1.762-4.711h1l-2.873 7.2c-.344.881-.8 1.455-1.8 1.455a2.357 2.357 0 01-.728-.077l.077-.766a1.124 1.124 0 00.613.153c.574 0 .843-.383 1.111-1.034l.421-1.111-2.341-5.782h1z"/><g><path class="b" d="M108.353 25.777h2.03v3.868l3.6-3.868h2.681l-4.137 4.29 4.481 4.979h-2.873l-3.753-4.4v4.4h-2.029zM118.196 25.547a1.149 1.149 0 11-1.149 1.149 1.149 1.149 0 011.149-1.149zm-1 3.141h1.954v6.359h-1.954zM119.422 28.688h2.106l1.609 4.328h.038l1.493-4.328h1.992l-2.527 6.358h-2.068zM133.057 35.05h-1.877v-.881h-.038a2.107 2.107 0 01-1.877 1.034c-1.992 0-2.375-1.3-2.375-3.026V28.65h1.954v3.141c0 .728 0 1.685 1.034 1.685s1.187-.8 1.187-1.608v-3.18h1.954v6.362zM138.304 30.258h-1.726v2.106c0 .69.077 1.187.919 1.187a1.555 1.555 0 00.8-.192v1.652a4.143 4.143 0 01-1.379.192c-1.3 0-2.336-.536-2.336-1.917v-3.028h-1.257V28.69h1.264v-1.879h1.954v1.877h1.724v1.568zM141.943 28.535a3.337 3.337 0 11-3.524 3.332 3.311 3.311 0 013.524-3.332zm0 4.941a1.609 1.609 0 10-1.568-1.608 1.478 1.478 0 001.568 1.608zM145.854 26.696a.988.988 0 11-.706.289 1 1 0 01.706-.289zm0 1.839a.818.818 0 00.8-.843.804.804 0 00-1.609 0 .795.795 0 00.8.843zm-.383-1.417h.421c.268 0 .421.116.421.344a.273.273 0 01-.268.306l.306.5h-.232l-.268-.46h-.153v.458h-.192v-1.149zm.192.5h.153c.116 0 .268 0 .268-.153s-.153-.153-.268-.153h-.162z"/></g></svg>