<svg version="1.1" id="Vrstva_1" xmlns="http://www.w3.org/2000/svg" x="0" y="0" viewBox="0 0 252.5 56.7" xml:space="preserve"><style>.st1{fill:#b3c8e9}.st2{fill:#346195}.st3{fill:#fff}.st4{fill:#e5edf9}</style><path d="M169.2 49.9c0 .7-.1 1.1-.2 1.3-.2.4-.5.6-.9.6-.5 0-.8-.3-.8-.9 0-.4.2-.8.6-1 .3-.2.6-.3 1.3-.3v.3zm1.9 1.9c-.2.2-.3.2-.4.2-.1 0-.2 0-.2-.2-.1-.1-.1-.1-.1-1.4V49c0-1.1 0-1.2-.3-1.5-.3-.3-.9-.5-1.5-.5-1.1 0-2 .6-2 1.3 0 .3.2.6.6.6.3 0 .5-.2.5-.6 0-.1 0-.2-.2-.4l-.1-.1c0-.2.5-.5 1-.5.3 0 .6.1.7.3.1.2.2.3.2 1v.9c-.9 0-1.4.1-1.9.3-.8.3-1.2.8-1.2 1.5s.6 1.2 1.4 1.2c.7 0 1.3-.4 1.7-1 .1.7.5 1 1.1 1 .3 0 .6-.1.9-.4l-.2-.3zm-6.3-4.4h.5v-.3h-1.9v.3h1l-1.3 3.5-1.4-3.5h.9v-.3h-2.8v.3h.5l2 5h.5l2-5zm-8.4-.1c.5 0 .8.1 1.1.5.2.3.2.5.2 2 0 1.3 0 1.6-.1 1.8-.2.4-.6.6-1.1.6-.5 0-.8-.1-1-.5-.2-.3-.2-.5-.2-1.9s0-1.6.1-1.8c.1-.5.5-.7 1-.7m0-.3c-1.4 0-2.6 1.2-2.6 2.7 0 1.5 1.2 2.7 2.6 2.7 1.4 0 2.6-1.2 2.6-2.7.1-1.5-1.1-2.7-2.6-2.7m-5.7 5h-.9v.3h2.9V52h-.9v-8.4h-2v.3h.9V52zm-5 0h-.9v.3h2.9V52h-.9v-1.2c0-1.5.1-2.3.5-2.9.1-.2.3-.3.4-.3.1 0 .1.1.1.2 0 .3 0 .3.1.4.1.2.3.4.5.4.4 0 .6-.3.6-.7 0-.4-.3-.8-.8-.8-.6 0-1.1.4-1.4 1.4v-1.2h-2v.3h.9V52zm-3.9-2.1c0 .7-.1 1.1-.2 1.3-.2.4-.5.6-.9.6-.5 0-.8-.3-.8-.9 0-.4.2-.8.6-1 .3-.2.6-.3 1.3-.3v.3zm1.8 1.9c-.2.2-.3.2-.4.2-.1 0-.2 0-.2-.2-.1-.1-.1-.1-.1-1.4V49c0-1.1 0-1.2-.3-1.5-.3-.3-.9-.5-1.5-.5-1.1 0-2 .6-2 1.3 0 .3.2.6.6.6.3 0 .5-.2.5-.6 0-.1 0-.2-.2-.4l-.1-.1c0-.2.5-.5 1-.5.3 0 .6.1.7.3.1.2.2.3.2 1v.9c-.9 0-1.4.1-1.9.3-.8.3-1.2.8-1.2 1.5s.6 1.2 1.4 1.2c.7 0 1.3-.4 1.7-1 .1.7.5 1 1.1 1 .3 0 .6-.1.9-.4l-.2-.3zm-10.1-4.9l2.8-3.1h1.1v-.3h-2.8v.3h1.3l-3.5 3.9 3.2 4.3h-1.1v.3h3.4V52h-.6l-3.8-5.1zm-2.7 5.1h-1.1v.3h3.6V52h-1.1v-8.2h1.1v-.3h-3.6v.3h1.1V52zm-7.7-2.1c0 .7-.1 1.1-.2 1.3-.2.4-.5.6-.9.6-.5 0-.8-.3-.8-.9 0-.4.2-.8.6-1 .3-.2.6-.3 1.3-.3v.3zm1.8 1.9c-.2.2-.3.2-.4.2-.1 0-.2 0-.2-.2-.1-.1-.1-.1-.1-1.4V49c0-1.1 0-1.2-.3-1.5-.3-.3-.9-.5-1.5-.5-1.1 0-2 .6-2 1.3 0 .3.2.6.6.6.3 0 .5-.2.5-.6 0-.1 0-.2-.2-.4l-.1-.1c0-.2.5-.5 1-.5.3 0 .6.1.7.3.1.2.2.3.2 1v.9c-.9 0-1.4.1-1.9.3-.8.3-1.2.8-1.2 1.5s.6 1.2 1.4 1.2c.7 0 1.3-.4 1.7-1 .1.7.5 1 1.1 1 .3 0 .6-.1.9-.4l-.2-.3zm-7.7-6.7h-.2c-.3.9-.9 1.6-1.8 2.1v.2h.8v3.3c0 .8 0 1 .3 1.2.2.3.6.5 1.1.5.8 0 1.2-.4 1.4-1.1h-.3c-.1.5-.3.7-.7.7-.2 0-.4-.1-.5-.2-.1-.1-.1-.3-.1-.6v-3.7h1.3v-.3h-1.3v-2.1zm-4.6-1.4c-.4 0-.7.3-.7.7 0 .4.3.7.7.7.4 0 .7-.3.7-.7 0-.4-.3-.7-.7-.7m-.5 8.3h-.9v.3h2.9V52h-.9v-4.9h-2v.3h.9V52zm-2.7-4.9h-4.2v2h.2c.3-1 .4-1.1.6-1.4.2-.3.5-.3 1.2-.3h.7l-3.1 4.9h4.5v-2.2h-.3c-.1.5-.3 1-.4 1.3-.2.5-.6.6-1.4.6h-1l3.2-4.9zm-9.3 4.9h-.9v.3h2.9V52h-.9v-1.2c0-1.5.1-2.3.5-2.9.1-.2.3-.3.4-.3.1 0 .1.1.1.2 0 .3 0 .3.1.4.1.2.3.4.5.4.4 0 .6-.3.6-.7 0-.4-.3-.8-.8-.8-.6 0-1.1.4-1.4 1.4v-1.2h-2v.3h.9V52zm-5.4-3v-.3c0-.7.1-.9.2-1.1.2-.2.5-.3.8-.3.4 0 .7.2.8.5.1.2.1.3.1 1.2h-1.9zm3.4.2c0-.5-.1-.9-.3-1.2-.4-.7-1.1-1.1-1.9-1.1-1.3 0-2.4 1.2-2.4 2.7 0 1.4 1.2 2.7 2.5 2.7 1 0 1.9-.8 2.1-1.8h-.3c-.2 1-.9 1.6-1.7 1.6-.5 0-.9-.2-1.1-.6-.1-.3-.2-.6-.2-1.8v-.4h3.3zM92 47.4h.5v-.3h-1.9v.3h1l-1.3 3.5-1.3-3.5h.9v-.3h-2.8v.3h.5l2 5h.5l1.9-5zm-7.1-3.7c-.4 0-.7.3-.7.7 0 .4.3.7.7.7.4 0 .7-.3.7-.7.1-.4-.3-.7-.7-.7m-.5 8.3h-.9v.3h2.9V52h-.9v-4.9h-2v.3h.9V52zm-7.3 0h-.9v.3H79V52h-.8v-1.6c0-1.6.1-2.2.3-2.5.2-.3.6-.5 1-.5.3 0 .5.1.7.3.2.2.2.7.2 2.3v2h-.8v.3h2.8V52h-.9v-2.9c0-1-.1-1.3-.4-1.6-.1-.3-.6-.5-1.1-.5-.7 0-1.2.3-1.6.8v-.7h-2v.3h.9V52zm-3-8.2v5c0 1.4 0 1.7-.3 2.2-.3.7-.9 1.1-1.8 1.1-.7 0-1.3-.3-1.6-.7-.3-.5-.4-.7-.4-2.5v-5h1.1v-.3h-3.6v.3h1.1v5c0 1.7.1 2.2.7 2.8.5.5 1.4.8 2.4.8s1.8-.3 2.2-.9c.4-.6.5-1 .5-2.7v-5h1.1v-.3H73v.3h1.1z" fill="#d32e3f"/><path d="M174.7 34.3h.5V34h-1.9v.3h1l-1.2 3.3-1.4-3.3h.9V34h-2.8v.3h.6l2.2 4.9-.7 1.9c-.2.6-.3.7-.4.7-.1 0-.1 0-.2-.1-.1-.2-.3-.3-.5-.3-.4 0-.6.3-.6.6 0 .4.3.6.7.6.6 0 1-.4 1.3-1.4l2.5-6.9zm-5.7 0h.5V34h-1.9v.3h1l-1.3 3.5-1.4-3.5h.9V34H164v.3h.5l2 5h.5l2-5zm-8.1-.1c.5 0 .8.1 1.1.5.2.3.2.5.2 2 0 1.3 0 1.6-.1 1.8-.2.4-.6.6-1.1.6-.5 0-.8-.1-1-.5-.2-.3-.2-.5-.2-1.9s0-1.6.1-1.8c.1-.5.5-.7 1-.7m0-.2c-1.4 0-2.6 1.2-2.6 2.7 0 1.5 1.2 2.7 2.6 2.7 1.4 0 2.6-1.2 2.6-2.7.1-1.6-1.1-2.7-2.6-2.7m-9.2 4.9h-.9v.3h2.8v-.3h-.8V37c0-1 .1-1.4.2-1.8.2-.6.8-.9 1.3-.9.3 0 .6.1.7.3.1.2.1.3.1 1.2v3.1h-.8v.3h2.8v-.3h-.9v-3.1c0-.9 0-1.1-.3-1.4-.3-.3-.8-.5-1.3-.5-.9 0-1.5.3-1.9 1.1v-4.5h-2v.3h.9v8.1zm-2.1-1.4c-.3 1-.9 1.5-1.7 1.5-.4 0-.7-.1-.9-.4-.2-.3-.3-.7-.3-1.6 0-1.1.1-1.9.3-2.2.2-.3.5-.5 1-.5.4 0 .9.2.9.4 0 0 0 .1-.1.1-.2.2-.3.4-.3.6 0 .4.2.6.6.6.4 0 .6-.3.6-.7 0-.7-.8-1.3-1.8-1.3-1.4 0-2.6 1.2-2.6 2.7 0 1.4 1.2 2.7 2.5 2.7 1 0 1.7-.6 2.1-1.8h-.3zm-7-6.3l-1.3 1.9.1.1 2.2-1.8.1-.1c0-.1 0-.1-.1-.1h-1zm1.4 3.1h.5V34h-1.9v.3h1l-1.2 3.3-1.4-3.3h.9V34h-2.8v.3h.6l2.2 4.9-.7 1.9c-.2.6-.3.7-.4.7-.1 0-.1 0-.2-.1-.1-.2-.3-.3-.5-.3-.4 0-.6.3-.6.6 0 .4.3.6.7.6.6 0 1-.4 1.3-1.4l2.5-6.9zm-5.7 0h.5V34h-1.9v.3h1l-1.3 3.5-1.4-3.5h.9V34h-2.8v.3h.5l2 5h.5l2-5zm-10.9-3.1l-1.3 1.9.1.1 2.2-1.8.1-.1c0-.1 0-.1-.1-.1h-1zm-1.7 4.8v-.3c0-.7.1-.9.2-1.1.2-.2.5-.3.8-.3.4 0 .7.2.8.5.1.2.1.3.1 1.2h-1.9zm3.3.2c0-.5-.1-.9-.3-1.2-.4-.7-1.1-1.1-1.9-1.1-1.3 0-2.4 1.2-2.4 2.7 0 1.4 1.2 2.7 2.5 2.7 1 0 1.9-.8 2.1-1.8h-.3c-.2 1-.9 1.6-1.7 1.6-.5 0-.9-.2-1.1-.6-.1-.3-.2-.6-.2-1.8v-.4h3.3zm-8.5-.3l1.6-1.6h.9V34h-2.6v.3h1.3l-2.2 2.1 1.9 2.5h-.7v.3h2.8v-.3h-.6l-2.4-3zm-1.1-5.4h-2v.3h.9V39h-.9v.3h2.9V39h-.9v-8.5zm-3.2 7c-.3 1-.9 1.5-1.7 1.5-.4 0-.7-.1-.9-.4-.2-.3-.3-.7-.3-1.6 0-1.1.1-1.9.3-2.2.2-.3.5-.5 1-.5.4 0 .9.2.9.4 0 0 0 .1-.1.1-.2.2-.3.4-.3.6 0 .4.2.6.6.6.4 0 .6-.3.6-.7 0-.7-.8-1.3-1.8-1.3-1.4 0-2.6 1.2-2.6 2.7 0 1.4 1.2 2.7 2.5 2.7 1 0 1.7-.6 2.1-1.8h-.3zm-6.9-6.8c-.4 0-.7.3-.7.7 0 .4.3.7.7.7.4 0 .7-.3.7-.7 0-.4-.3-.7-.7-.7m-.5 8.2h-.9v.3h2.9v-.3h-.9V34h-2v.3h.9v4.6zm-7.3 0h-.9v.3h2.8v-.3h-.8v-1.5c0-1.6.1-2.2.3-2.5.2-.3.6-.5 1-.5.3 0 .5.1.7.3.2.2.2.7.2 2.3v2h-.8v.3h2.8V39h-.8v-3c0-1-.1-1.3-.4-1.6-.3-.3-.8-.5-1.3-.5-.7 0-1.2.3-1.6.8V34h-2v.3h.9v4.6zm-7.4 0h-.9v.3H96v-.3h-.8V37c0-1 .1-1.4.2-1.8.2-.6.8-.9 1.3-.9.3 0 .6.1.7.3.1.2.1.3.1 1.2v3.1h-.8v.3h2.8v-.3h-.9v-3.1c0-.9 0-1.1-.3-1.4-.3-.3-.8-.5-1.3-.5-.9 0-1.5.3-1.9 1.1v-4.5h-2v.3h.9v8.1zm-2-1.4c-.3 1-.9 1.5-1.7 1.5-.4 0-.7-.1-.9-.4-.2-.3-.3-.7-.3-1.6 0-1.1.1-1.9.3-2.2.2-.3.5-.5 1-.5.4 0 .9.2.9.4 0 0 0 .1-.1.1-.2.2-.3.4-.3.6 0 .4.2.6.6.6.4 0 .6-.3.6-.7 0-.7-.8-1.3-1.8-1.3-1.4 0-2.6 1.2-2.6 2.7 0 1.4 1.2 2.7 2.5 2.7 1 0 1.7-.6 2.1-1.8h-.3zM83.2 36v-.3c0-.7.1-.9.2-1.1.2-.2.5-.3.8-.3.4 0 .7.2.8.5.1.2.1.3.1 1.2h-1.9zm3.4.2c0-.5-.1-.9-.3-1.2-.4-.7-1.1-1.1-1.9-1.1-1.3 0-2.4 1.2-2.4 2.7 0 1.4 1.2 2.7 2.5 2.7 1 0 1.9-.8 2.1-1.8h-.3c-.2 1-.9 1.6-1.7 1.6-.5 0-.9-.2-1.1-.6-.1-.3-.2-.6-.2-1.8v-.4h3.3zm-7.1-4.1h-.2c-.3.9-.9 1.6-1.8 2.1v.2h.8v3.3c0 .8 0 1 .3 1.2.2.3.6.5 1.1.5.8 0 1.2-.4 1.4-1.1h-.3c-.1.5-.3.7-.7.7-.2 0-.4-.1-.5-.2-.1-.1-.1-.3-.1-.6v-3.7h1.3v-.3h-1.3v-2.1zm-8.6 4.8c0 .7-.1 1.1-.2 1.3-.2.4-.5.6-.9.6-.5 0-.8-.3-.8-.9 0-.4.2-.8.6-1 .3-.2.6-.3 1.3-.3v.3zm1.9 1.8c-.2.2-.3.2-.4.2-.1 0-.2 0-.2-.2-.1-.1-.1-.1-.1-1.4V36c0-1.1 0-1.2-.3-1.5-.3-.3-.9-.5-1.5-.5-1.1 0-2 .6-2 1.3 0 .3.2.6.6.6.3 0 .5-.2.5-.6 0-.1 0-.2-.2-.4l-.1-.1c0-.2.5-.5 1-.5.3 0 .6.1.7.3.1.2.2.3.2 1v.9c-.9 0-1.4.1-1.9.3-.8.3-1.2.8-1.2 1.5s.6 1.2 1.4 1.2c.7 0 1.3-.4 1.7-1 .1.7.5 1 1.1 1 .3 0 .6-.1.9-.4l-.2-.4zM251.4 18.2l-1.3 1.9.1.1 2.2-1.8.1-.1c0-.1 0-.1-.1-.1h-1zm-1.1 7.7h-.9v.3h2.9v-.3h-.9V21h-2v.3h.9v4.6zm-3.4-8.2c-.4 0-.7.3-.7.7 0 .4.3.7.7.7.4 0 .7-.3.7-.7 0-.4-.3-.7-.7-.7m-.6 8.2h-.9v.3h2.9v-.3h-.9V21h-2v.3h.9v4.6zm-3 1.1c.5 0 .7.1.7.5 0 1-1 1.8-2.3 1.8-.9 0-1.6-.6-1.6-1.4 0-.4.1-.7.4-1l.1-.1h.7l2 .2zm-1.6-5.8c.4 0 .6.1.7.3.1.2.1.4.1 1.2 0 .8 0 1.2-.2 1.4-.1.2-.4.3-.7.3-.6 0-.8-.3-.8-1.2 0-.9 0-1.3.1-1.5.2-.4.5-.5.8-.5zm.8 4.7h-1.7c-.4 0-.5 0-.7-.1-.1-.1-.2-.2-.2-.4 0-.3.3-.7.9-1.1.4.2.6.2 1 .2 1.2 0 2.1-.7 2.1-1.8 0-.4-.1-.8-.4-1.2.2-.2.2-.2.3-.2.1 0 .1.1.1.2.1.3.2.4.4.4.3 0 .5-.2.5-.5 0-.4-.2-.6-.6-.6-.3 0-.6.2-.9.5-.4-.4-.9-.5-1.5-.5-1.2 0-2.1.8-2.1 1.8 0 .6.2 1 .8 1.5-.8.5-1.1 1-1.1 1.6 0 .6.4 1 1 1.1-.6.2-1 .6-1 1.1 0 .9 1.1 1.6 2.3 1.6 1.6 0 2.7-1 2.7-2.4 0-.5-.2-.9-.5-1.2-.3-.2-.5-.2-1.1-.2h-.3zm-7-4.7c.5 0 .8.1 1.1.5.2.3.2.5.2 2 0 1.3 0 1.6-.1 1.8-.2.4-.6.6-1.1.6-.5 0-.8-.1-1-.5-.2-.3-.2-.5-.2-1.9s0-1.6.1-1.8c.1-.5.5-.7 1-.7m0-.3c-1.4 0-2.6 1.2-2.6 2.7 0 1.5 1.2 2.7 2.6 2.7 1.4 0 2.6-1.2 2.6-2.7 0-1.5-1.1-2.7-2.6-2.7m-5.7 5h-.9v.3h2.9v-.3h-.9v-8.4h-2v.3h.9v8.1zm-4.6-4.7c.5 0 .8.1 1.1.5.2.3.2.5.2 2 0 1.3 0 1.6-.1 1.8-.2.4-.6.6-1.1.6-.5 0-.8-.1-1-.5-.2-.3-.2-.5-.2-1.9s0-1.6.1-1.8c.1-.5.4-.7 1-.7m0-.3c-1.4 0-2.6 1.2-2.6 2.7 0 1.5 1.2 2.7 2.6 2.7 1.4 0 2.6-1.2 2.6-2.7 0-1.5-1.1-2.7-2.6-2.7m-9.1 5h-.9v.3h2.8v-.3h-.8v-1.6c0-1.6.1-2.2.3-2.5.2-.3.6-.5 1-.5.3 0 .5.1.7.3.2.2.2.7.2 2.3v2h-.8v.3h2.8v-.3h-.9V23c0-1-.1-1.3-.4-1.6-.3-.3-.8-.5-1.3-.5-.7 0-1.2.3-1.6.8V21h-2v.3h.9v4.6zm-7.4 0h-.9v.3h2.8v-.3h-.8V24c0-1 .1-1.4.2-1.8.2-.6.8-.9 1.3-.9.3 0 .6.1.7.3.1.2.1.3.1 1.2v3.1h-.8v.3h2.8v-.3h-.9v-3.1c0-.9 0-1.1-.3-1.4-.3-.3-.8-.5-1.3-.5-.9 0-1.5.3-1.9 1.1v-4.5h-2v.3h.9v8.1zm-2-1.4c-.3 1-.9 1.5-1.7 1.5-.4 0-.7-.1-.9-.4-.2-.3-.3-.7-.3-1.6 0-1.1.1-1.9.3-2.2.2-.3.5-.5 1-.5.4 0 .9.2.9.4 0 0 0 .1-.1.1-.2.2-.3.4-.3.6 0 .4.2.6.6.6.4 0 .6-.3.6-.7 0-.7-.8-1.3-1.8-1.3-1.4 0-2.6 1.2-2.6 2.7 0 1.4 1.2 2.7 2.5 2.7 1 0 1.7-.6 2.1-1.8h-.3zm-8.9-1.6v-.3c0-.7.1-.9.2-1.1.2-.2.5-.3.8-.3.4 0 .7.2.8.5.1.2.1.3.1 1.2h-1.9zm3.4.3c0-.5-.1-.9-.3-1.2-.4-.7-1.1-1.1-1.9-1.1-1.3 0-2.4 1.2-2.4 2.7 0 1.4 1.2 2.7 2.5 2.7 1 0 1.9-.8 2.1-1.8h-.3c-.2 1-.9 1.6-1.7 1.6-.5 0-.9-.2-1.1-.6-.1-.3-.2-.6-.2-1.8v-.4h3.3zm-7.1-4.1h-.2c-.3.9-.9 1.6-1.8 2.1v.2h.8v3.3c0 .8 0 1 .3 1.2.2.3.6.5 1.1.5.8 0 1.2-.4 1.4-1.1h-.3c-.1.5-.3.7-.7.7-.2 0-.4-.1-.5-.2-.1-.1-.1-.3-.1-.6v-3.7h1.3v-.3h-1.3v-2.1zM182 25.9h-.9v.3h2.8v-.3h-.8V24c0-1 .1-1.4.2-1.8.2-.6.8-.9 1.3-.9.3 0 .6.1.7.3.1.2.1.3.1 1.2v3.1h-.8v.3h2.8v-.3h-.9v-3.1c0-.9 0-1.1-.3-1.4-.3-.3-.8-.5-1.3-.5-.9 0-1.5.3-1.9 1.1v-4.5h-2v.3h.9v8.1zm-2-1.4c-.3 1-.9 1.5-1.7 1.5-.4 0-.7-.1-.9-.4-.2-.3-.3-.7-.3-1.6 0-1.1.1-1.9.3-2.2.2-.3.5-.5 1-.5.4 0 .9.2.9.4 0 0 0 .1-.1.1-.2.2-.3.4-.3.6 0 .4.2.6.6.6.4 0 .6-.3.6-.7 0-.7-.8-1.3-1.8-1.3-1.4 0-2.6 1.2-2.6 2.7 0 1.4 1.2 2.7 2.5 2.7 1 0 1.7-.6 2.1-1.8h-.3zm-6.3-6.3l-1.3 1.9.1.1 2.2-1.8.1-.1c0-.1 0-.1-.1-.1h-1zm-1.1 7.7h-.9v.3h2.9v-.3h-.9V21h-2v.3h.9v4.6zm-7.3 0h-.9v.3h2.8v-.3h-.8v-1.6c0-1.6.1-2.2.3-2.5.2-.3.6-.5 1-.5.3 0 .5.1.7.3.2.2.2.7.2 2.3v2h-.8v.3h2.8v-.3h-.9V23c0-1-.1-1.3-.4-1.6-.3-.3-.8-.5-1.3-.5-.7 0-1.2.3-1.6.8V21h-2v.3h.9v4.6zm-3.9-6.8l-1.8-1-.1.1 1.9 1.9 1.9-1.9-.1-.1-1.8 1zm1.7 5.4c-.3 1-.9 1.5-1.7 1.5-.4 0-.7-.1-.9-.4-.2-.3-.3-.7-.3-1.6 0-1.1.1-1.9.3-2.2.2-.3.5-.5 1-.5.4 0 .9.2.9.4 0 0 0 .1-.1.1-.2.2-.3.4-.3.6 0 .4.2.6.6.6.4 0 .6-.3.6-.7 0-.7-.8-1.3-1.8-1.3-1.4 0-2.6 1.2-2.6 2.7 0 1.4 1.2 2.7 2.5 2.7 1 0 1.7-.6 2.1-1.8h-.3zm-7.3-.7c0 .7-.1 1.1-.2 1.3-.2.4-.5.6-.9.6-.5 0-.8-.3-.8-.9 0-.4.2-.8.6-1 .3-.2.6-.3 1.3-.3v.3zm1.8 1.9c-.2.2-.3.2-.4.2-.1 0-.2 0-.2-.2-.1-.1-.1-.1-.1-1.4V23c0-1.1 0-1.2-.3-1.5-.3-.3-.9-.5-1.5-.5-1.1 0-2 .6-2 1.3 0 .3.2.6.6.6.3 0 .5-.2.5-.6 0-.1 0-.2-.2-.4l-.1-.1c0-.2.5-.5 1-.5.3 0 .6.1.7.3.1.2.2.3.2 1v.9c-.9 0-1.4.1-1.9.3-.8.3-1.2.8-1.2 1.5s.6 1.2 1.4 1.2c.7 0 1.3-.4 1.7-1 .1.7.5 1 1.1 1 .3 0 .6-.1.9-.4l-.2-.4zm-14.5.2h-.9v.3h2.8v-.3h-.8v-1.4c0-1.5.1-2.2.2-2.5.2-.4.6-.6 1.1-.6.2 0 .5.1.6.3.1.2.1.4.1 1.1V26h-.8v.3h2.7V26h-.8v-1.4c0-2 0-2.1.2-2.5.2-.4.6-.7 1.1-.7.2 0 .4.1.5.2.2.2.2.3.2 1.2V26h-.8v.3h2.8V26h-.9v-3.2c0-.7-.1-1-.3-1.3-.2-.3-.7-.5-1.2-.5-.8 0-1.4.3-1.8.9-.1-.3-.2-.4-.4-.5-.3-.2-.6-.3-1.1-.3-.7 0-1.2.2-1.7.8v-.6h-2v.3h.9v4.3zm-5.3 0h-.9v.3h2.9v-.3h-.9v-1.2c0-1.5.1-2.3.5-2.9.1-.2.3-.3.4-.3.1 0 .1.1.1.2 0 .3 0 .3.1.4.1.2.3.4.5.4.4 0 .6-.3.6-.7 0-.4-.3-.8-.8-.8-.6 0-1.1.4-1.4 1.4v-1.2h-2v.3h.9v4.4zm-4.8-4.7c.5 0 .8.1 1.1.5.2.3.2.5.2 2 0 1.3 0 1.6-.1 1.8-.2.4-.6.6-1.1.6-.5 0-.8-.1-1-.5-.2-.3-.2-.5-.2-1.9s0-1.6.1-1.8c.1-.5.5-.7 1-.7m0-.3c-1.4 0-2.6 1.2-2.6 2.7 0 1.5 1.2 2.7 2.6 2.7 1.4 0 2.6-1.2 2.6-2.7.1-1.5-1.1-2.7-2.6-2.7m-4.6.4h1.2V21h-1.2v-1.8c0-1 0-1.1.1-1.3.1-.2.3-.4.6-.4.1 0 .3 0 .4.1-.2.2-.2.4-.2.5 0 .3.2.6.5.6s.5-.3.5-.6c0-.5-.5-.9-1.1-.9-.5 0-1 .3-1.4.7-.4.5-.5 1-.5 1.9v1.1h-.9v.3h.9v4.6h-.9v.3h3.1v-.3h-1.1v-4.5zm-8.5 4.6h-.9v.3h2.8v-.3h-.8v-1.6c0-1.6.1-2.2.3-2.5.2-.3.6-.5 1-.5.3 0 .5.1.7.3.2.2.2.7.2 2.3v2h-.8v.3h2.8v-.3h-.9V23c0-1-.1-1.3-.4-1.6-.3-.3-.8-.5-1.3-.5-.7 0-1.2.3-1.6.8V21h-2v.3h.9v4.6zm-3.3-8.2c-.4 0-.7.3-.7.7 0 .4.3.7.7.7.4 0 .7-.3.7-.7 0-.4-.3-.7-.7-.7m-.6 8.2h-.9v.3h2.9v-.3h-.9V21h-2v.3h.9v4.6zm-7.5-2.1c0 .7-.1 1.1-.2 1.3-.2.4-.5.6-.9.6-.5 0-.8-.3-.8-.9 0-.4.2-.8.6-1 .3-.2.6-.3 1.3-.3v.3zm1.9 1.9c-.2.2-.3.2-.4.2-.1 0-.2 0-.2-.2-.1-.1-.1-.1-.1-1.4V23c0-1.1 0-1.2-.3-1.5-.3-.3-.9-.5-1.5-.5-1.1 0-2 .6-2 1.3 0 .3.2.6.6.6.3 0 .5-.2.5-.6 0-.1 0-.2-.2-.4l-.1-.1c0-.2.5-.5 1-.5.3 0 .6.1.7.3.1.2.2.3.2 1v.9c-.9 0-1.4.1-1.9.3-.8.3-1.2.8-1.2 1.5s.6 1.2 1.4 1.2c.7 0 1.3-.4 1.7-1 .1.7.5 1 1.1 1 .3 0 .6-.1.9-.4l-.2-.4zm-9.4.2h-.9v.3h2.9v-.3h-.9v-1.2c0-1.5.1-2.3.5-2.9.1-.2.3-.3.4-.3.1 0 .1.1.1.2 0 .3 0 .3.1.4.1.2.3.4.5.4.4 0 .6-.3.6-.7 0-.4-.3-.8-.8-.8-.6 0-1.1.4-1.4 1.4v-1.2h-2v.3h.9v4.4zm-5.4-4.7c.8 0 1.4 1 1.4 2.4s-.6 2.4-1.4 2.4c-.3 0-.6-.2-.8-.5-.1-.3-.2-.5-.2-1.7 0-1.4.1-1.9.2-2.1.2-.3.5-.5.8-.5m2.5-3.7h-2v.3h.9V22c-.4-.7-.9-1.1-1.6-1.1-1.2 0-2.2 1.2-2.2 2.7 0 1.5 1 2.7 2.2 2.7.7 0 1.2-.4 1.5-1.1v1h2v-.3H98v-8.4zm-9.4 5.4v-.3c0-.7.1-.9.2-1.1.2-.2.5-.3.8-.3.4 0 .7.2.8.5.1.2.1.3.1 1.2h-1.9zm3.4.3c0-.5-.1-.9-.3-1.2-.4-.7-1.1-1.1-1.9-1.1-1.3 0-2.4 1.2-2.4 2.7 0 1.4 1.2 2.7 2.5 2.7 1 0 1.9-.8 2.1-1.8h-.3c-.2 1-.9 1.6-1.7 1.6-.5 0-.9-.2-1.1-.6-.1-.3-.2-.6-.2-1.8v-.4h3.3zm-7.3-4.1h-.2c-.3.9-.9 1.6-1.8 2.1v.2h.8v3.3c0 .8 0 1 .3 1.2.2.3.6.5 1.1.5.8 0 1.2-.4 1.4-1.1h-.3c-.1.5-.3.7-.7.7-.2 0-.4-.1-.5-.2-.1-.1-.1-.3-.1-.6v-3.7h1.3v-.3h-1.3v-2.1zm-5 4.7c0 .7-.1 1.1-.2 1.3-.2.4-.5.6-.9.6-.5 0-.8-.3-.8-.9 0-.4.2-.8.6-1 .3-.2.6-.3 1.3-.3v.3zm1.9 1.9c-.2.2-.3.2-.4.2-.1 0-.2 0-.2-.2-.1 0-.1 0-.1-1.3V23c0-1.1 0-1.2-.3-1.5-.3-.3-.9-.5-1.5-.5-1.1 0-2 .6-2 1.3 0 .3.2.6.6.6.3 0 .5-.2.5-.6 0-.1 0-.2-.2-.4-.1-.1-.1-.1-.1-.2 0-.2.5-.5 1-.5.3 0 .6.1.7.3.1.2.2.3.2 1v.9c-.9 0-1.4.1-1.9.3-.8.3-1.2.8-1.2 1.5s.6 1.2 1.4 1.2c.7 0 1.3-.4 1.7-1 .1.7.5 1 1.1 1 .3 0 .6-.1.9-.4l-.2-.3zm-10.2-4.8l2.8-3.1h1.1v-.3h-2.8v.3h1.3l-3.5 3.9 3.2 4.3h-1.1v.3h3.4V26h-.6l-3.8-5.1zm-2.6 5h-1.1v.3h3.6v-.3h-1.1v-8.2h1.1v-.3h-3.6v.3h1.1v8.2zM229.3 10.1h-2.4l1.2-3.6 1.2 3.6zm.1.3l.8 2.5h-1.1v.3h3.5v-.3h-.9l-2.8-8.4h-.4l-2.9 8.4h-.6v.3h2.1v-.3H226l.8-2.5h2.6zm-10.2 2.5H218v.3h3.9v-.3h-1.2V4.7h.4c.9 0 1.1.1 1.5.5.4.5.6 1 .8 1.9h.2l-.1-2.7h-7.1l-.1 2.7h.2c.2-.9.4-1.4.8-1.9s.6-.5 1.5-.5h.4v8.2zm-10.1 0H208v.3h6.5l.2-2.7h-.2c-.2 1-.4 1.6-.8 1.9-.3.4-.7.5-1.7.5h-1.5V4.7h1.1v-.2H208v.3h1.1v8.1zm-4.5-8.2v5c0 1.4 0 1.7-.3 2.2-.3.7-.9 1.1-1.8 1.1-.7 0-1.3-.3-1.6-.7-.3-.5-.4-.7-.4-2.5v-5h1.1v-.3H198v.3h1.1v5c0 1.7.1 2.2.7 2.8.5.5 1.4.8 2.4.8s1.8-.3 2.2-.9c.4-.6.5-1 .5-2.7v-5h1.1v-.3h-2.5v.3h1.1zm-12.4 3.2l2.8-3.1h1.1v-.3h-2.8v.3h1.3l-3.5 3.9 3.2 4.3h-1.1v.3h3.4V13h-.6l-3.8-5.1zm-2.6 5h-1.1v.3h3.6v-.3H191V4.7h1.1v-.2h-3.6v.3h1.1v8.1zm-6.3-2.8h-2.4l1.2-3.6 1.2 3.6zm.1.3l.8 2.5h-1.1v.3h3.5v-.3h-.9l-2.8-8.4h-.4l-2.9 8.4h-.6v.3h2.1v-.3H180l.8-2.5h2.6zm-11 2.5h-1.1v.3h3.6v-.3h-1.1v-4h.4c.8 0 1.1.1 1.3.5.1.3.2.4.2 1.2h.2V7h-.2c0 1.4-.3 1.6-1.9 1.6V4.7h2.2c.4.1.6.2.9.5.3.4.5.8.7 1.6h.2l-.2-2.4h-6.2v.3h1.1v8.2zM162.1 2.3l-1.8 1.4.1.2 3-1.2c.1-.1.2-.1.2-.2s-.1-.1-.2-.1h-1.3zm-.3 7.8h-2.4l1.2-3.6 1.2 3.6zm.1.3l.8 2.5h-1.1v.3h3.5v-.3h-.9l-2.8-8.4h-.4l-2.9 8.4h-.6v.3h2.1v-.3h-1.1l.8-2.5h2.6zm-10.1-2.5l2.8-3.1h1.1v-.3h-2.8v.3h1.3l-3.5 3.9 3.2 4.3h-1.1v.3h3.4V13h-.6l-3.8-5.1zm-2.7 5H148v.3h3.6v-.3h-1.1V4.7h1.1v-.2H148v.3h1.1v8.1zm-3.3-2.2h-.2c-.5 1.5-1.4 2.3-2.5 2.3-.7 0-1.4-.3-1.7-.8-.3-.5-.4-1.2-.4-3 0-1.9.1-3 .4-3.5.3-.6 1-1 1.8-1 1.2 0 2.1.8 2.4 2.1h.2V4.5h-.2l-.4.6c-.6-.5-1.3-.7-2-.7s-1.5.3-2.2.8c-1 .8-1.6 2.2-1.6 3.7 0 2.4 1.7 4.5 3.7 4.5.7 0 1.4-.2 2.1-.8l.4.6h.2v-2.5zm-11.1 2.2h-1.1v.3h3.6v-.3H136V4.7h1.1v-.2h-3.6v.3h1.1v8.1zm-4.1-8.4h-.2l-.4.5c-.7-.4-1.3-.6-1.9-.6-2.1 0-3.8 2-3.8 4.5 0 2.4 1.7 4.5 3.7 4.5 1.1 0 2.2-.6 2.7-1.4.2-.4.4-.8.4-1.5h.8v-.3h-3.7v.3h1.3c0 .8-.1 1.2-.2 1.5-.2.7-.8 1.1-1.5 1.1s-1.3-.4-1.6-1c-.2-.5-.3-1.5-.3-3.2 0-1.8.2-2.9.5-3.4s.9-.8 1.6-.8c.6 0 1.1.2 1.5.6.5.5.7.9.9 1.8h.2V4.5zm-12.5.1c.7 0 1.3.3 1.6.8.4.5.5 1.4.5 3.5 0 1.8-.1 2.7-.4 3.2-.3.6-1 .9-1.7.9s-1.3-.3-1.6-.8c-.4-.5-.5-1.4-.5-3.4 0-1.8.1-2.8.4-3.3.3-.5.9-.9 1.7-.9m0-.3c-2 0-3.8 2.1-3.8 4.5s1.7 4.5 3.8 4.5c.9 0 1.8-.4 2.5-1.2.8-.9 1.3-2.1 1.3-3.3 0-2.4-1.8-4.5-3.8-4.5m-6.9.2h-.2l-.4.5c-.7-.4-1.3-.6-1.9-.6-2.1 0-3.8 2-3.8 4.5 0 2.4 1.7 4.5 3.7 4.5 1.1 0 2.2-.6 2.7-1.4.2-.4.4-.8.4-1.5h.8v-.3h-3.7v.3h1.3c0 .8-.1 1.2-.2 1.5-.2.7-.8 1.1-1.5 1.1s-1.3-.4-1.6-1c-.2-.5-.3-1.5-.3-3.2 0-1.8.2-2.9.5-3.4s.9-.8 1.6-.8c.6 0 1.1.2 1.5.6.5.5.7.9.9 1.8h.2V4.5zm-11.4 5.6h-2.4l1.2-3.6 1.2 3.6zm.1.3l.8 2.5h-1.1v.3h3.5v-.3h-.9l-2.8-8.4H99l-2.9 8.4h-.6v.3h2.1v-.3h-1.1l.8-2.5h2.6zm-11.6 2.5V4.7H90c.6.1 1.1.3 1.4.7.5.5.6 1.3.6 3.2 0 1.4-.1 2.3-.2 2.8-.2.6-.6 1-1.2 1.2-.5.2-.7.2-1.7.2h-.6zm-1.4 0h-1.1v.3H89c1.7 0 2.2-.1 3-.7 1.1-.8 1.8-2.2 1.8-3.7 0-1.4-.5-2.6-1.5-3.4-.8-.7-1.5-.9-3.4-.9h-3v.3H87v8.1zm-9.2 0h-1.1v.3h6.5l.2-2.7h-.2c-.4 1.4-.6 1.9-1.1 2.2-.3.2-.4.2-1.3.2H79v-4h.4c.8 0 1.1.1 1.3.5.1.3.2.4.2 1.2h.2V7H81c0 1.4-.3 1.6-1.9 1.6V4.7h2c.5.2.9.3 1.1.7.3.4.4.7.6 1.5h.2l-.1-2.4h-6.2v.3h1.1v8.1zm-7.4-4.2v-4h.9c1.6 0 1.9.4 1.9 2 0 .8-.1 1.3-.4 1.6-.3.2-.7.3-1.5.3h-.9zm-1.4 4.2h-1.1v.3h3.6v-.3h-1.1V9h.9c1.3 0 1.9-.1 2.5-.5.7-.4 1-1 1-1.7 0-1-.6-1.7-1.7-2.1-.4-.1-.8-.2-1.8-.2h-3.3v.3H69v8.1z"/><g><path class="st1" d="M53.2 14.7c-1.7.7-24.8 10.9-24.8 10.9V0C39 0 48.3 5.9 53.2 14.7"/><path class="st2" d="M53.2 14.7c-.8.3-6.5 2.8-12.2 5.3 0 0 1.2-5.2-2.4-8.8C35.4 8.1 31.7 7 28.3 7V49.2c2.9 0 4.9-1.3 5.5-3.5h16.8c2-2.5 3.6-5.5 4.6-8.5 0 0 1.5-3.9 1.5-9 0-4.8-1.3-9.5-3.5-13.5M3.5 14.7c1.7.7 24.8 10.9 24.8 10.9V0C17.7 0 8.3 5.9 3.5 14.7"/><path class="st1" d="M22.9 45.8l-5.2 8.8c3.3 1.3 6.9 2.1 10.7 2.1v-7.4c-3 0-5-1.3-5.5-3.5"/><path class="st2" d="M22.9 45.8H6c3 3.9 7 6.9 11.6 8.8l5.3-8.8z"/><path class="st3" d="M18.1 11.3c-3.5 3.6-2.4 8.8-2.4 8.8l12.6 5.6V7c-3.3 0-7 1.1-10.2 4.3"/><path class="st1" d="M3.5 14.7C1.3 18.7 0 23.4 0 28.3c0 5.1 1.5 9 1.5 9 14.1-10.1 24.2 1.7 26.9 5.2V25.6c-.1 0-23.2-10.2-24.9-10.9"/><path class="st4" d="M28.3 42.5C25.7 39 15.5 27.2 1.5 37.3c1 3 2.6 6 4.6 8.5h16.8c.6 2.2 2.6 3.5 5.5 3.5l-.1-6.8"/><path class="st2" d="M33.8 45.8l5.2 8.8c-3.3 1.3-6.9 2.1-10.7 2.1v-7.4c3 0 5-1.3 5.5-3.5"/><path class="st4" d="M33.8 45.8h16.8c-3 3.9-7 6.9-11.6 8.8l-5.2-8.8z"/><path class="st1" d="M28.3 42.5C31 39 41.2 27.2 55.2 37.3c-1 3-2.6 6-4.6 8.5H33.8c-.6 2.2-2.6 3.5-5.5 3.5v-6.8M11.3 5.7c-.1 7.1 4.6 6.9 8.5 8.2-.6.6-.9 1.4-.9 2.3 0 1.8 1.5 3.3 3.3 3.3 1 0 1.8-.4 2.4-1 2.7.9 3.4 3.3 3.7 4v-5c-1.1-10.2-12-7-17-11.8"/><path class="st2" d="M21 16c0 .7.5 1.4 1.3 1.4.7 0 1.2-.6 1.3-1.3-.5-.6-1.1-1.1-1.7-1.5-.6.2-.9.8-.9 1.4"/><path class="st3" d="M45.4 5.7c.1 7.1-4.6 6.9-8.5 8.2.6.6.9 1.4.9 2.3 0 1.8-1.5 3.3-3.3 3.3-1 0-1.8-.4-2.4-1-2.7.9-3.4 3.3-3.7 4v-5c1.1-10.2 12-7 17-11.8"/><path class="st2" d="M35.7 16c0 .7-.5 1.4-1.3 1.4-.7 0-1.2-.6-1.3-1.3.5-.6 1.1-1.1 1.7-1.5.6.2.9.8.9 1.4"/></g></svg>