<svg xmlns="http://www.w3.org/2000/svg" height="75.587" width="336.627"><path d="M225.624 66.497c0 .902-.087 1.423-.279 1.753-.277.503-.712.78-1.233.78-.643 0-1.043-.433-1.043-1.162 0-.573.26-1.007.783-1.32.417-.26.85-.364 1.772-.399zm2.445 2.517c-.312.26-.348.277-.521.277-.173 0-.243-.052-.295-.208-.069-.156-.069-.156-.069-1.807v-1.91c0-1.51-.017-1.615-.399-2.014-.416-.451-1.196-.727-2.048-.727-1.442 0-2.725.814-2.725 1.734 0 .435.312.765.747.765.397 0 .71-.313.71-.748 0-.19-.052-.33-.244-.538-.069-.07-.086-.122-.086-.19 0-.33.713-.73 1.304-.73.398 0 .781.139.954.347.192.226.227.4.227 1.39v1.198c-1.164.018-1.876.139-2.52.382-1.023.416-1.577 1.093-1.577 1.944 0 .956.745 1.613 1.837 1.613.939 0 1.756-.485 2.26-1.351.104.885.607 1.351 1.456 1.351.45 0 .799-.155 1.197-.518zm-8.366-5.87h.694v-.345h-2.482v.344h1.32l-1.788 4.671-1.823-4.67h1.25v-.345h-3.68v.344h.729l2.656 6.65h.606zm-11.144-.122c.694 0 1.129.19 1.406.607.243.365.278.608.278 2.606 0 1.77-.035 2.083-.191 2.414-.277.503-.747.747-1.476.747-.66 0-1.095-.192-1.372-.608-.261-.383-.279-.61-.279-2.588 0-1.824.018-2.102.191-2.449.261-.486.748-.729 1.443-.729m.017-.397c-1.928 0-3.505 1.612-3.505 3.575 0 1.997 1.577 3.592 3.522 3.592 1.911 0 3.506-1.595 3.506-3.54 0-2.032-1.543-3.627-3.523-3.627m-7.637 6.65h-1.163v.343h3.87v-.344H202.5V58.042h-2.724v.345h1.163zm-6.736 0h-1.163v.343h3.87v-.344h-1.146v-1.616c0-2.014.173-3.004.695-3.89.156-.26.346-.433.469-.433.103 0 .156.087.173.243.018.347.018.347.07.468a.77.77 0 00.71.469c.487 0 .852-.382.852-.886 0-.59-.452-1.004-1.094-1.004-.799 0-1.406.588-1.875 1.82V62.8h-2.724v.344h1.163zm-5.155-2.778c0 .902-.087 1.423-.279 1.753-.277.503-.712.78-1.232.78-.644 0-1.042-.433-1.042-1.162 0-.573.26-1.007.781-1.32.417-.26.85-.364 1.772-.399zm2.445 2.517c-.312.26-.346.277-.52.277-.173 0-.242-.052-.294-.208-.071-.156-.071-.156-.071-1.807v-1.91c0-1.51-.017-1.615-.399-2.014-.416-.451-1.194-.727-2.048-.727-1.441 0-2.725.814-2.725 1.734 0 .435.313.765.745.765.4 0 .712-.313.712-.748 0-.19-.052-.33-.242-.538-.07-.07-.087-.122-.087-.19 0-.33.712-.73 1.303-.73.4 0 .781.139.954.347.194.226.227.4.227 1.39v1.198c-1.164.018-1.876.139-2.519.382-1.022.416-1.577 1.093-1.577 1.944 0 .956.745 1.613 1.837 1.613.939 0 1.755-.485 2.259-1.351.104.885.607 1.351 1.456 1.351.452 0 .799-.155 1.199-.518zm-13.522-6.46l3.697-4.167h1.459v-.345h-3.698v.345h1.702l-4.654 5.192 4.254 5.695h-1.511v.344h4.565v-.344h-.832zm-3.522 6.72h-1.441v.344h4.737v-.344h-1.441V58.387h1.441v-.345h-4.737v.345h1.441zm-10.329-2.777c0 .902-.087 1.423-.279 1.753-.277.503-.712.78-1.232.78-.644 0-1.042-.433-1.042-1.162 0-.573.26-1.007.781-1.32.417-.26.85-.364 1.772-.399zm2.445 2.517c-.312.26-.346.277-.52.277-.173 0-.244-.052-.296-.208-.069-.156-.069-.156-.069-1.807v-1.91c0-1.51-.017-1.615-.399-2.014-.416-.451-1.196-.727-2.048-.727-1.441 0-2.725.814-2.725 1.734 0 .435.313.765.745.765.399 0 .712-.313.712-.748 0-.19-.052-.33-.242-.538-.071-.07-.087-.122-.087-.19 0-.33.712-.73 1.303-.73.4 0 .781.139.954.347.192.226.227.4.227 1.39v1.198c-1.164.018-1.877.139-2.52.382-1.023.416-1.576 1.093-1.576 1.944 0 .956.745 1.613 1.837 1.613.939 0 1.755-.485 2.259-1.351.104.885.607 1.351 1.456 1.351.452 0 .799-.155 1.197-.518zm-10.258-8.871h-.279c-.415 1.232-1.195 2.135-2.341 2.759v.241h1.06v4.394c0 1.077.034 1.268.345 1.632.33.416.85.623 1.475.623 1.041 0 1.666-.5 1.822-1.474h-.346c-.123.644-.418.938-.938.938-.278 0-.538-.12-.66-.33-.121-.19-.138-.347-.138-.851v-4.932h1.736V62.8h-1.736zm-6.162-1.858a.949.949 0 00-.972.971c0 .555.418.989.972.989a.988.988 0 00.988-.989.984.984 0 00-.988-.97m-.728 10.988h-1.164v.344h3.87v-.344h-1.147V62.8h-2.723v.344h1.164zm-3.594-6.475h-5.591v2.655h.227c.381-1.286.468-1.477.798-1.859.312-.365.607-.452 1.596-.452h.92l-4.182 6.475h5.97l.035-2.897h-.225c-.156.642-.382 1.371-.556 1.737-.312.625-.746.816-1.875.816h-1.37zm-12.376 6.475h-1.164v.344h3.87v-.344h-1.146v-1.616c0-2.014.174-3.004.694-3.89.156-.26.348-.433.47-.433.104 0 .156.087.173.243.017.347.017.347.07.468a.772.772 0 00.711.469c.486 0 .851-.382.851-.886 0-.59-.452-1.004-1.095-1.004-.797 0-1.405.588-1.874 1.82V62.8h-2.724v.344h1.164zm-7.17-3.975v-.366c0-.868.069-1.164.312-1.46.243-.295.642-.45 1.129-.45.538 0 .954.242 1.11.677.122.313.14.452.14 1.599zm4.496.344c-.035-.728-.156-1.144-.452-1.613-.555-.887-1.51-1.405-2.586-1.405-1.736 0-3.264 1.665-3.264 3.574 0 1.91 1.58 3.593 3.35 3.593 1.39 0 2.552-1.005 2.83-2.464h-.417c-.33 1.302-1.197 2.068-2.309 2.068-.659 0-1.162-.296-1.423-.8-.19-.365-.225-.764-.225-2.45v-.503zm-8.09-2.5h.695V62.8h-2.483v.344h1.32l-1.788 4.671-1.823-4.67h1.25v-.345h-3.68v.344h.729l2.655 6.65h.608zm-9.443-4.858a.948.948 0 00-.971.971c0 .555.415.989.97.989a.989.989 0 00.99-.989.984.984 0 00-.99-.97m-.727 10.988h-1.164v.344h3.87v-.344h-1.147V62.8h-2.723v.344h1.164zm-9.652 0h-1.163v.344h3.766v-.344h-1.043v-2.067c0-2.135.104-2.883.434-3.369.279-.4.817-.695 1.268-.695.347 0 .66.157.87.435.242.33.312.954.312 3.021v2.675h-1.043v.344h3.748v-.344h-1.145V65.42c0-1.286-.087-1.685-.485-2.12-.382-.397-1.075-.674-1.77-.674-.921 0-1.615.346-2.19 1.074v-.9h-2.722v.344h1.163zm-4.01-10.887v6.632c0 1.91-.052 2.31-.347 2.97-.417.92-1.251 1.407-2.38 1.407-.955 0-1.753-.365-2.17-.99-.452-.644-.487-.939-.487-3.387v-6.632h1.442v-.345H90.17v.345h1.44v6.632c0 2.292.157 2.97.885 3.682.693.677 1.91 1.091 3.246 1.091 1.32 0 2.345-.431 2.883-1.23.52-.765.623-1.32.623-3.543v-6.632h1.44v-.345h-3.295v.345h1.458" fill="#d82342"/><path d="M232.965 45.784h.695v-.345h-2.535v.345h1.372l-1.614 4.444-1.927-4.444h1.215v-.345h-3.698v.345h.747l2.95 6.475-.971 2.569c-.312.833-.382.92-.556.92-.086 0-.156-.052-.26-.191a.843.843 0 00-.73-.365c-.485 0-.833.348-.833.817 0 .486.417.85.99.85.78 0 1.285-.52 1.771-1.84zm-7.637 0h.693v-.345h-2.481v.345h1.319l-1.788 4.672-1.823-4.672h1.25v-.345h-3.68v.345h.729l2.656 6.649h.608zm-10.78-.122c.695 0 1.13.19 1.407.61.242.364.277.606.277 2.603 0 1.772-.035 2.085-.19 2.414-.278.503-.747.747-1.475.747-.662 0-1.096-.191-1.374-.608-.26-.382-.277-.607-.277-2.588 0-1.823.017-2.1.19-2.448.26-.487.747-.73 1.442-.73m.019-.397c-1.928 0-3.507 1.613-3.507 3.575 0 1.998 1.579 3.593 3.524 3.593 1.91 0 3.505-1.595 3.505-3.54 0-2.032-1.544-3.628-3.522-3.628m-12.343 6.65h-1.164v.344h3.767v-.345h-1.043v-2.519c0-1.284.07-1.874.279-2.395.312-.748 1.006-1.234 1.772-1.234.398 0 .746.14.902.382.174.244.191.436.191 1.633v4.133h-1.041v.345h3.765v-.345h-1.163v-4.133c0-1.215-.052-1.512-.365-1.876-.347-.398-1.005-.64-1.77-.64-1.146 0-1.962.45-2.57 1.406v-5.988h-2.724v.344h1.164zm-2.693-1.859c-.434 1.303-1.232 1.98-2.308 1.98-.504 0-.955-.191-1.216-.538-.278-.365-.364-.869-.364-2.137 0-1.527.121-2.552.348-2.986.26-.452.728-.713 1.336-.713.573 0 1.197.278 1.197.54 0 .052-.017.07-.07.121-.225.26-.346.555-.346.816 0 .468.33.816.781.816.486 0 .816-.365.816-.903 0-.956-1.129-1.787-2.43-1.787-1.892 0-3.488 1.665-3.488 3.627 0 1.894 1.544 3.54 3.332 3.54 1.336 0 2.238-.76 2.846-2.376zm-9.338-8.488l-1.684 2.482.156.174 2.899-2.361c.053-.052.088-.104.088-.157 0-.104-.052-.138-.157-.138zM192 45.784h.694v-.345h-2.534v.345h1.372l-1.615 4.444-1.928-4.444h1.216v-.345h-3.697v.345h.745l2.952 6.475-.972 2.569c-.313.833-.381.92-.556.92-.087 0-.156-.052-.26-.191a.845.845 0 00-.73-.365c-.486 0-.833.348-.833.817 0 .486.416.85.99.85.781 0 1.285-.52 1.77-1.84zm-7.639 0h.695v-.345h-2.483v.345h1.32l-1.788 4.672-1.823-4.672h1.25v-.345h-3.68v.345h.729l2.656 6.649h.607zm-14.547-4.216l-1.684 2.482.156.174 2.9-2.361c.051-.052.087-.104.087-.157 0-.104-.053-.138-.157-.138zm-2.274 6.37v-.364c0-.87.069-1.164.313-1.46.243-.296.641-.452 1.128-.452.539 0 .955.244 1.11.678.122.313.14.452.14 1.599zm4.497.346c-.036-.727-.157-1.145-.452-1.613-.556-.887-1.51-1.406-2.587-1.406-1.736 0-3.264 1.665-3.264 3.575 0 1.91 1.58 3.593 3.351 3.593 1.39 0 2.552-1.005 2.83-2.465h-.417c-.33 1.304-1.197 2.068-2.309 2.068-.66 0-1.163-.296-1.424-.799-.19-.364-.225-.765-.225-2.449v-.504zm-11.424-.398l2.187-2.102h1.197v-.345h-3.505v.345h1.7l-2.899 2.83 2.5 3.3h-.868v.345h3.715v-.345h-.799zm-1.476-7.203h-2.723v.344h1.163v10.887h-1.163v.345h3.868v-.345h-1.145zm-4.253 9.373c-.434 1.303-1.232 1.98-2.31 1.98-.502 0-.954-.191-1.214-.538-.278-.365-.364-.869-.364-2.137 0-1.527.121-2.552.346-2.986.262-.452.73-.713 1.338-.713.572 0 1.197.278 1.197.54 0 .052-.017.07-.07.121-.225.26-.346.555-.346.816 0 .468.33.816.78.816.487 0 .816-.365.816-.903 0-.956-1.128-1.787-2.43-1.787-1.893 0-3.486 1.665-3.486 3.627 0 1.894 1.541 3.54 3.33 3.54 1.337 0 2.24-.76 2.847-2.376zm-9.147-9.13a.95.95 0 00-.972.97c0 .556.417.989.972.989a.987.987 0 00.988-.988.985.985 0 00-.988-.972m-.728 10.99h-1.163v.344h3.868v-.345h-1.145V45.44h-2.723v.345h1.163zm-9.652 0h-1.163v.344h3.766v-.345h-1.043v-2.066c0-2.136.105-2.883.435-3.369.277-.4.816-.695 1.268-.695.348 0 .66.156.869.434.243.33.312.956.312 3.021v2.675h-1.041v.345h3.746v-.345h-1.145V48.06c0-1.285-.085-1.684-.485-2.12-.382-.397-1.075-.674-1.77-.674-.921 0-1.614.346-2.189 1.075v-.901h-2.723v.345h1.163zm-9.912 0h-1.163v.344h3.765v-.345h-1.042v-2.519c0-1.284.07-1.874.278-2.395.313-.748 1.008-1.234 1.772-1.234.4 0 .747.14.903.382.174.244.19.436.19 1.633v4.133h-1.04v.345h3.764v-.345h-1.163v-4.133c0-1.215-.05-1.512-.363-1.876-.348-.398-1.006-.64-1.77-.64-1.147 0-1.962.45-2.571 1.406v-5.988h-2.723v.344h1.163zm-2.692-1.859c-.434 1.303-1.233 1.98-2.31 1.98-.502 0-.954-.191-1.214-.538-.278-.365-.365-.869-.365-2.137 0-1.527.122-2.552.347-2.986.26-.452.73-.713 1.337-.713.573 0 1.198.278 1.198.54 0 .052-.017.07-.07.121-.226.26-.347.555-.347.816 0 .468.33.816.781.816.486 0 .816-.365.816-.903 0-.956-1.128-1.787-2.43-1.787-1.892 0-3.488 1.665-3.488 3.627 0 1.894 1.544 3.54 3.332 3.54 1.336 0 2.24-.76 2.846-2.376zm-11.838-2.117v-.365c0-.87.069-1.164.312-1.46.243-.296.642-.452 1.129-.452.538 0 .954.244 1.11.678.122.313.14.452.14 1.599zm4.496.345c-.035-.727-.156-1.145-.452-1.613-.555-.887-1.51-1.406-2.586-1.406-1.736 0-3.264 1.665-3.264 3.575 0 1.91 1.58 3.593 3.35 3.593 1.39 0 2.552-1.005 2.83-2.465h-.417c-.33 1.304-1.197 2.068-2.308 2.068-.66 0-1.164-.296-1.423-.799-.192-.364-.226-.765-.226-2.449v-.504zm-9.463-5.5h-.277c-.415 1.231-1.195 2.134-2.341 2.76v.24h1.058v4.394c0 1.076.035 1.267.347 1.632.33.415.849.623 1.474.623 1.041 0 1.667-.502 1.823-1.473h-.347c-.122.642-.417.937-.938.937-.278 0-.538-.122-.66-.33-.12-.191-.139-.348-.139-.85v-4.933h1.737v-.345h-1.737zm-11.35 6.353c0 .902-.087 1.423-.278 1.753-.279.503-.713.781-1.234.781-.643 0-1.042-.434-1.042-1.163 0-.573.26-1.007.782-1.32.417-.26.85-.364 1.772-.399zm2.445 2.517c-.312.26-.347.277-.52.277-.174 0-.243-.052-.296-.208-.07-.156-.07-.156-.07-1.805v-1.911c0-1.51-.016-1.615-.398-2.015-.416-.451-1.195-.727-2.048-.727-1.442 0-2.725.815-2.725 1.735 0 .434.312.764.745.764.4 0 .712-.313.712-.747 0-.19-.052-.33-.243-.538-.07-.069-.087-.122-.087-.19 0-.332.713-.731 1.303-.731.4 0 .781.14.956.347.192.227.226.401.226 1.39v1.198c-1.164.018-1.877.139-2.52.382-1.023.416-1.577 1.095-1.577 1.946 0 .954.745 1.612 1.837 1.612.94 0 1.755-.485 2.26-1.352.104.885.606 1.352 1.456 1.352.451 0 .798-.156 1.198-.519l-.209-.26M335.176 24.209l-1.683 2.482.156.173 2.896-2.36c.052-.053.088-.105.088-.157 0-.104-.05-.138-.157-.138zm-1.51 10.346h-1.162v.345h3.868v-.345h-1.145v-6.476h-2.723v.345h1.163zm-4.478-10.989a.95.95 0 00-.972.971c0 .555.417.988.972.988a.987.987 0 00.988-.988c0-.537-.45-.97-.988-.97m-.73 10.988h-1.162v.345h3.87v-.345h-1.146v-6.476h-2.724v.345h1.163zm-4.113 1.456c.712 0 .972.19.972.73 0 1.388-1.337 2.449-3.074 2.449-1.25 0-2.118-.747-2.118-1.824 0-.469.191-.939.52-1.269.036-.052.036-.052.07-.086.382.034.573.052.973.052zm-2.014-7.76c.469 0 .764.104.92.347.156.21.192.557.192 1.564 0 1.094-.052 1.545-.21 1.806-.173.278-.485.434-.92.434-.834 0-1.077-.364-1.077-1.633 0-1.163.035-1.736.156-2.015.123-.33.435-.503.937-.503zm.972 6.269c-.486 0-.867 0-.938.017-1.181.018-1.181.018-1.354.018-.522 0-.678-.018-.868-.104-.191-.087-.312-.313-.312-.54 0-.45.398-.938 1.162-1.422.47.207.783.275 1.286.275 1.649 0 2.812-.987 2.812-2.377 0-.555-.174-1.076-.539-1.562.208-.227.277-.279.399-.279.088 0 .156.087.192.279.069.347.277.52.572.52a.645.645 0 00.642-.66c0-.47-.329-.779-.798-.779-.416 0-.764.207-1.25.71-.502-.468-1.162-.71-1.978-.71-1.563 0-2.743 1.058-2.743 2.43 0 .78.33 1.39 1.076 1.98-1.025.674-1.527 1.387-1.527 2.17 0 .762.467 1.3 1.3 1.525-.866.26-1.369.834-1.369 1.528 0 1.147 1.404 2.082 3.124 2.082 2.17 0 3.661-1.335 3.661-3.264 0-.71-.225-1.248-.64-1.542-.349-.226-.661-.295-1.406-.295zm-9.339-6.217c.695 0 1.128.191 1.405.608.246.365.28.608.28 2.605 0 1.772-.034 2.084-.192 2.414-.278.503-.746.746-1.476.746-.661 0-1.094-.19-1.373-.608-.26-.381-.277-.607-.277-2.587 0-1.823.017-2.1.19-2.449.262-.486.747-.73 1.443-.73m.017-.396c-1.928 0-3.505 1.613-3.505 3.575 0 1.997 1.577 3.592 3.523 3.592 1.909 0 3.505-1.595 3.505-3.54 0-2.031-1.544-3.627-3.523-3.627m-7.637 6.649h-1.163v.345h3.87v-.345h-1.147V23.323h-2.723v.345h1.163zm-6.13-6.252c.695 0 1.131.191 1.409.608.242.365.277.608.277 2.605 0 1.772-.035 2.084-.19 2.414-.28.503-.749.746-1.478.746-.659 0-1.095-.19-1.372-.608-.26-.381-.279-.607-.279-2.587 0-1.823.019-2.1.192-2.449.26-.486.748-.73 1.442-.73m.017-.396c-1.928 0-3.505 1.613-3.505 3.575 0 1.997 1.577 3.592 3.524 3.592 1.909 0 3.504-1.595 3.504-3.54 0-2.031-1.543-3.627-3.523-3.627m-12.08 6.649h-1.164v.345h3.767v-.345h-1.043v-2.067c0-2.136.104-2.882.435-3.37.277-.399.816-.694 1.268-.694.348 0 .66.156.869.434.243.33.31.956.31 3.022v2.675h-1.042v.345h3.75v-.345h-1.147V30.7c0-1.285-.086-1.686-.484-2.12-.383-.397-1.076-.674-1.77-.674-.921 0-1.616.346-2.189 1.074v-.9h-2.724v.344h1.164zm-9.913 0h-1.163v.345h3.765v-.345H279.8v-2.519c0-1.284.07-1.874.278-2.395.314-.748 1.008-1.234 1.771-1.234.401 0 .748.139.904.382.175.243.192.434.192 1.633v4.133h-1.043v.345h3.766v-.345h-1.163v-4.133c0-1.217-.052-1.511-.364-1.876-.347-.398-1.005-.64-1.77-.64-1.146 0-1.962.449-2.571 1.405v-5.988h-2.723v.345h1.163zm-2.694-1.859c-.433 1.303-1.232 1.98-2.308 1.98-.504 0-.954-.19-1.216-.538-.277-.364-.364-.868-.364-2.136 0-1.528.122-2.552.348-2.988.26-.45.728-.711 1.336-.711.574 0 1.198.277 1.198.538 0 .052-.018.07-.07.121-.225.262-.346.557-.346.817 0 .47.329.816.781.816.485 0 .816-.364.816-.902 0-.956-1.13-1.787-2.43-1.787-1.891 0-3.487 1.666-3.487 3.627 0 1.893 1.544 3.54 3.33 3.54 1.336 0 2.239-.761 2.847-2.377zm-11.837-2.117v-.364c0-.87.07-1.164.312-1.46.244-.296.643-.452 1.13-.452.537 0 .954.243 1.11.678.121.312.139.452.139 1.598zm4.496.345c-.035-.726-.156-1.145-.452-1.613-.555-.887-1.51-1.405-2.585-1.405-1.736 0-3.264 1.666-3.264 3.575 0 1.91 1.58 3.592 3.35 3.592 1.388 0 2.552-1.005 2.83-2.464h-.416c-.331 1.303-1.199 2.067-2.31 2.067-.66 0-1.162-.295-1.424-.798-.19-.366-.225-.765-.225-2.45v-.504zm-9.461-5.5h-.278c-.414 1.232-1.196 2.135-2.341 2.759v.241h1.059v4.395c0 1.076.034 1.267.346 1.632.33.415.85.622 1.475.622 1.041 0 1.667-.5 1.823-1.473h-.348c-.122.642-.416.937-.938.937-.277 0-.537-.121-.658-.33-.123-.19-.14-.347-.14-.85v-4.933h1.736v-.345h-1.736zm-16.108 9.13h-1.163v.346h3.765v-.345h-1.041v-2.519c0-1.284.07-1.874.277-2.395.312-.748 1.008-1.234 1.772-1.234.4 0 .747.139.903.382.173.243.19.434.19 1.633v4.133h-1.04v.345h3.766v-.345H248.9v-4.133c0-1.217-.052-1.511-.364-1.876-.345-.398-1.005-.64-1.77-.64-1.145 0-1.962.449-2.57 1.405v-5.988h-2.724v.345h1.163zm-2.692-1.858c-.434 1.303-1.232 1.98-2.31 1.98-.502 0-.954-.19-1.214-.538-.278-.364-.364-.868-.364-2.136 0-1.528.121-2.552.346-2.988.26-.45.73-.711 1.338-.711.572 0 1.197.277 1.197.538 0 .052-.017.07-.07.121-.225.262-.347.557-.347.817 0 .47.33.816.781.816.487 0 .817-.364.817-.902 0-.956-1.129-1.787-2.432-1.787-1.89 0-3.485 1.666-3.485 3.627 0 1.893 1.541 3.54 3.33 3.54 1.337 0 2.24-.761 2.847-2.377zm-8.367-8.487l-1.681 2.482.156.173 2.896-2.36c.052-.053.086-.105.086-.157 0-.104-.052-.138-.156-.138zm-1.508 10.346h-1.163v.345h3.868v-.345h-1.145v-6.476h-2.723v.345h1.163zm-9.652 0h-1.164v.345h3.767v-.345h-1.043v-2.067c0-2.136.104-2.882.433-3.37.28-.399.818-.694 1.27-.694.346 0 .66.156.869.434.243.33.312.956.312 3.022v2.675h-1.043v.345h3.748v-.345h-1.145V30.7c0-1.285-.087-1.686-.485-2.12-.382-.397-1.075-.674-1.771-.674-.92 0-1.616.346-2.188 1.074v-.9h-2.724v.344h1.164zm-5.176-9.149l-2.343-1.267-.137.174 2.48 2.551 2.5-2.551-.139-.174zm2.257 7.29c-.434 1.303-1.233 1.98-2.309 1.98-.503 0-.955-.19-1.215-.538-.278-.364-.365-.868-.365-2.136 0-1.528.123-2.552.348-2.988.26-.45.73-.711 1.336-.711.573 0 1.199.277 1.199.538 0 .052-.018.07-.07.121-.226.262-.348.557-.348.817 0 .47.331.816.782.816.485 0 .816-.364.816-.902 0-.956-1.128-1.787-2.431-1.787-1.892 0-3.487 1.666-3.487 3.627 0 1.893 1.543 3.54 3.331 3.54 1.337 0 2.24-.761 2.847-2.377zm-9.824-.919c0 .903-.086 1.424-.277 1.753-.277.504-.712.782-1.233.782-.643 0-1.043-.434-1.043-1.163 0-.573.26-1.007.783-1.32.416-.26.849-.364 1.77-.4zm2.446 2.518c-.312.26-.347.277-.52.277-.174 0-.243-.052-.296-.208-.07-.157-.07-.157-.07-1.807v-1.91c0-1.51-.016-1.615-.397-2.014-.417-.452-1.196-.727-2.048-.727-1.443 0-2.727.813-2.727 1.735 0 .434.314.763.747.763.399 0 .712-.312.712-.746 0-.191-.053-.33-.244-.538-.07-.07-.087-.123-.087-.192 0-.33.714-.73 1.303-.73.4 0 .783.14.956.348.192.226.225.399.225 1.39v1.198c-1.164.017-1.876.139-2.518.382-1.024.416-1.578 1.093-1.578 1.945 0 .955.746 1.612 1.838 1.612.938 0 1.756-.485 2.258-1.351.106.885.607 1.351 1.456 1.351.452 0 .799-.155 1.199-.518zm-19.267.26h-1.163v.345h3.766v-.345h-1.043v-1.876c0-2.014.07-2.882.297-3.35.226-.488.834-.853 1.424-.853.331 0 .643.157.782.382.138.226.19.592.19 1.425v4.272h-1.041v.345h3.644v-.345h-1.043v-1.876c0-2.708.019-2.813.314-3.386a1.64 1.64 0 011.425-.869c.277 0 .539.087.695.243.242.244.277.451.277 1.616v4.272h-1.041v.345h3.765v-.345h-1.164v-4.272c0-.938-.085-1.39-.345-1.72-.314-.398-.955-.657-1.648-.657-1.043 0-1.824.38-2.38 1.143-.139-.399-.243-.555-.503-.727-.364-.277-.85-.416-1.405-.416-.922 0-1.634.329-2.243 1.039v-.866h-2.723v.345h1.163zm-7.15 0h-1.163v.345h3.868v-.345h-1.146V32.94c0-2.015.175-3.004.695-3.89.156-.261.347-.435.47-.435.103 0 .155.087.173.243.017.347.017.347.069.47a.772.772 0 00.712.47c.485 0 .85-.383.85-.887 0-.591-.451-1.005-1.094-1.005-.797 0-1.405.588-1.875 1.821V28.08h-2.722v.345h1.164zm-6.355-6.252c.694 0 1.129.191 1.408.608.242.365.277.608.277 2.605 0 1.772-.035 2.084-.19 2.414-.28.503-.749.746-1.478.746-.66 0-1.095-.19-1.372-.608-.261-.381-.277-.607-.277-2.587 0-1.823.016-2.1.19-2.449.26-.486.747-.73 1.442-.73m.017-.396c-1.928 0-3.505 1.613-3.505 3.575 0 1.997 1.577 3.592 3.522 3.592 1.91 0 3.506-1.595 3.506-3.54 0-2.031-1.544-3.627-3.523-3.627m-6.216.518h1.58v-.345h-1.58v-2.344c0-1.372.017-1.458.157-1.755a.855.855 0 01.78-.485.88.88 0 01.487.12c-.208.226-.33.47-.33.731 0 .417.313.746.711.746.383 0 .712-.364.712-.798 0-.626-.693-1.144-1.526-1.144-.712 0-1.388.362-1.875.987-.503.643-.676 1.286-.676 2.535v1.407h-1.163v.345h1.163v6.13h-1.163v.346h4.147v-.345h-1.424zm-11.23 6.13h-1.162v.346h3.765v-.345h-1.042v-2.067c0-2.136.105-2.882.436-3.37.277-.399.816-.694 1.266-.694.35 0 .662.156.87.434.242.33.313.956.313 3.022v2.675h-1.044v.345h3.75v-.345h-1.146V30.7c0-1.285-.088-1.686-.485-2.12-.382-.397-1.075-.674-1.77-.674-.921 0-1.616.346-2.19 1.074v-.9h-2.723v.344h1.163zm-4.478-10.988a.95.95 0 00-.972.971c0 .555.417.988.972.988a.987.987 0 00.988-.988c0-.537-.45-.97-.988-.97m-.728 10.988h-1.164v.345h3.87v-.345h-1.146v-6.476h-2.724v.345h1.164zm-10.017-2.778c0 .903-.087 1.424-.278 1.753-.277.504-.712.782-1.233.782-.643 0-1.041-.434-1.041-1.163 0-.573.26-1.007.78-1.32.417-.26.852-.364 1.772-.4zm2.446 2.518c-.312.26-.346.277-.52.277-.174 0-.244-.052-.296-.208-.069-.157-.069-.157-.069-1.807v-1.91c0-1.51-.017-1.615-.399-2.014-.417-.452-1.197-.727-2.048-.727-1.441 0-2.725.813-2.725 1.735 0 .434.31.763.745.763.399 0 .712-.312.712-.746 0-.191-.052-.33-.244-.538-.069-.07-.085-.123-.085-.192 0-.33.71-.73 1.301-.73.402 0 .783.14.956.348.191.226.226.399.226 1.39v1.198c-1.164.017-1.876.139-2.519.382-1.023.416-1.579 1.093-1.579 1.945 0 .955.746 1.612 1.84 1.612.938 0 1.755-.485 2.258-1.351.104.885.608 1.351 1.457 1.351.45 0 .799-.155 1.199-.518zm-12.462.26h-1.163v.345h3.87v-.345h-1.146V32.94c0-2.015.173-3.004.695-3.89.156-.261.346-.435.468-.435.104 0 .156.087.173.243.017.347.017.347.07.47a.773.773 0 00.711.47c.487 0 .851-.383.851-.887 0-.591-.45-1.005-1.093-1.005-.799 0-1.407.588-1.875 1.821V28.08h-2.724v.345h1.163zm-7.258-6.252c1.043 0 1.842 1.355 1.842 3.16 0 1.842-.782 3.213-1.842 3.213-.4 0-.799-.26-1.007-.677-.173-.347-.208-.729-.208-2.293 0-1.857.07-2.517.278-2.865.225-.33.573-.538.937-.538m3.437-4.98h-2.724v.345h1.164v5.643c-.573-.973-1.199-1.405-2.068-1.405-1.58 0-2.879 1.613-2.879 3.557 0 1.981 1.317 3.61 2.914 3.61.921 0 1.65-.536 2.033-1.49V34.9h2.706v-.345h-1.146zm-12.601 7.256v-.364c0-.87.069-1.164.312-1.46.243-.296.642-.452 1.128-.452.538 0 .955.243 1.111.678.122.312.14.452.14 1.598zm4.496.345c-.035-.726-.157-1.145-.451-1.613-.556-.887-1.51-1.405-2.587-1.405-1.736 0-3.264 1.666-3.264 3.575 0 1.91 1.58 3.592 3.35 3.592 1.39 0 2.552-1.005 2.83-2.464h-.416c-.33 1.303-1.198 2.067-2.31 2.067-.66 0-1.162-.295-1.423-.798-.19-.366-.225-.765-.225-2.45v-.504zm-9.636-5.5h-.278c-.415 1.232-1.195 2.135-2.341 2.759v.241h1.059v4.395c0 1.076.035 1.267.347 1.632.329.415.85.622 1.473.622 1.042 0 1.667-.5 1.823-1.473h-.347c-.122.642-.417.937-.937.937-.279 0-.539-.121-.66-.33-.122-.19-.14-.347-.14-.85v-4.933h1.737v-.345h-1.736zm-6.664 6.353c0 .903-.086 1.424-.278 1.753-.277.504-.712.782-1.233.782-.643 0-1.043-.434-1.043-1.163 0-.573.26-1.007.782-1.32.417-.26.85-.364 1.772-.4zm2.445 2.518c-.312.26-.346.277-.52.277-.174 0-.243-.052-.295-.208-.07-.157-.07-.157-.07-1.807v-1.91c0-1.51-.017-1.615-.398-2.014-.417-.452-1.196-.727-2.048-.727-1.442 0-2.726.813-2.726 1.735 0 .434.313.763.746.763.399 0 .712-.312.712-.746 0-.191-.053-.33-.244-.538-.069-.07-.087-.123-.087-.192 0-.33.713-.73 1.303-.73.4 0 .783.14.957.348.19.226.225.399.225 1.39v1.198c-1.164.017-1.876.139-2.52.382-1.023.416-1.577 1.093-1.577 1.945 0 .955.746 1.612 1.838 1.612.939 0 1.756-.485 2.26-1.351.103.885.605 1.351 1.455 1.351.451 0 .799-.155 1.198-.518zm-13.523-6.46l3.698-4.167h1.458v-.345h-3.697v.345h1.7l-4.652 5.192 4.253 5.695h-1.51v.345h4.566v-.345h-.833zm-3.52 6.72h-1.442v.345h4.736v-.345h-1.44V23.668h1.44v-.345h-4.736v.345h1.441v10.887M305.703 13.463h-3.246l1.631-4.81zm.121.344l1.13 3.388h-1.511v.345h4.705v-.345h-1.216l-3.75-11.231h-.52l-3.923 11.23h-.834v.346h2.812v-.345h-1.51l1.129-3.388zm-13.521 3.388h-1.632v.345h5.136v-.345h-1.614V6.308h.59c1.18 0 1.528.122 2.013.73.539.694.816 1.39 1.043 2.587h.26l-.122-3.661h-9.476l-.121 3.661h.26c.225-1.198.504-1.893 1.041-2.587.487-.608.834-.73 2.031-.73h.59zm-13.558 0h-1.441v.345h8.643l.294-3.575H286c-.312 1.39-.59 2.067-1.042 2.588-.45.52-.902.642-2.309.642H280.6V6.308h1.441v-.344h-4.737v.344h1.441zM272.86 6.308v6.633c0 1.91-.052 2.31-.347 2.97-.417.92-1.252 1.406-2.38 1.406-.954 0-1.753-.365-2.17-.99-.452-.642-.487-.937-.487-3.386V6.308h1.443v-.344h-4.738v.344h1.44v6.633c0 2.293.156 2.97.884 3.682.695.676 1.91 1.09 3.247 1.09 1.319 0 2.344-.431 2.883-1.23.52-.764.622-1.319.622-3.542V6.308h1.44v-.344h-3.294v.344zm-16.545 4.168l3.697-4.168h1.457v-.344h-3.697v.344h1.701l-4.652 5.192 4.254 5.695h-1.511v.345h4.565v-.345h-.833zm-3.522 6.719h-1.441v.345h4.736v-.345h-1.44V6.308h1.44v-.344h-4.736v.344h1.441zm-8.404-3.732h-3.246l1.632-4.81zm.122.344l1.129 3.388h-1.51v.345h4.703v-.345h-1.214l-3.75-11.231h-.521l-3.924 11.23h-.833v.346h2.813v-.345h-1.51l1.127-3.388zm-14.632 3.388h-1.442v.345h4.736v-.345h-1.44v-5.348h.555c1.007 0 1.459.191 1.703.694.173.348.206.556.277 1.599h.225V9.365h-.225c-.035 1.892-.365 2.17-2.535 2.152V6.308h1.076c1.442 0 1.511 0 1.806.053.486.069.85.277 1.214.694.435.486.643 1.008.868 2.136h.227l-.227-3.227h-8.26v.344h1.442zM216.18 3.013l-2.396 1.822.123.208 4.026-1.596c.191-.07.26-.157.26-.244 0-.139-.069-.19-.277-.19zm-.433 10.45H212.5l1.632-4.81zm.121.344l1.128 3.388h-1.51v.345h4.705v-.345h-1.216l-3.75-11.231h-.52l-3.924 11.23h-.833v.346h2.812v-.345h-1.51l1.129-3.388zm-13.525-3.331l3.698-4.168h1.459v-.344h-3.699v.344h1.702L200.85 11.5l4.253 5.695h-1.51v.345h4.565v-.345h-.834zm-3.522 6.719h-1.44v.345h4.736v-.345h-1.44V6.308h1.44v-.344h-4.736v.344h1.44zm-4.481-2.933h-.26c-.71 2.03-1.823 3.055-3.368 3.055-.99 0-1.84-.4-2.29-1.077-.417-.607-.557-1.631-.557-4.01 0-2.535.174-4.028.539-4.706.45-.851 1.336-1.337 2.448-1.337 1.613 0 2.777 1.024 3.228 2.83h.26V5.964h-.26l-.59.813c-.833-.642-1.787-.987-2.709-.987-.972 0-2.065.414-2.933 1.109-1.37 1.112-2.167 2.9-2.167 4.879 0 3.247 2.236 5.935 4.944 5.935.99 0 1.875-.31 2.866-1.021l.589.85h.26zm-14.804 2.933h-1.441v.345h4.738v-.345h-1.442V6.308h1.442v-.344h-4.738v.344h1.441zm-5.452-11.231h-.227l-.589.691c-.904-.589-1.719-.865-2.552-.865-2.76 0-5.068 2.707-5.068 5.972 0 3.262 2.221 5.951 4.912 5.951 1.405 0 2.933-.796 3.61-1.89.33-.521.486-1.06.538-1.98h1.095v-.345h-4.896v.344h1.736c-.018 1.06-.087 1.599-.243 2.05-.296.87-1.095 1.425-2.015 1.425-.954 0-1.788-.539-2.117-1.355-.295-.73-.416-2.015-.416-4.217 0-2.363.208-3.873.624-4.516.435-.66 1.233-1.042 2.136-1.042.816 0 1.492.26 2.065.798.626.609.955 1.251 1.232 2.432h.262zm-16.647.223c.886 0 1.702.381 2.17 1.024.486.694.661 1.858.661 4.619 0 2.38-.157 3.595-.557 4.272-.434.763-1.302 1.215-2.274 1.215-.904 0-1.702-.382-2.172-1.025-.502-.694-.677-1.874-.677-4.531 0-2.448.157-3.68.556-4.36.435-.763 1.303-1.214 2.293-1.214m-.017-.397c-2.71 0-5.033 2.741-5.033 5.953 0 3.23 2.324 5.97 5.05 5.97 1.25 0 2.447-.552 3.351-1.542 1.04-1.18 1.681-2.83 1.681-4.341 0-3.316-2.288-6.04-5.049-6.04m-9.133.174h-.226l-.589.691c-.903-.589-1.72-.865-2.553-.865-2.759 0-5.066 2.707-5.066 5.972 0 3.262 2.219 5.951 4.91 5.951 1.406 0 2.934-.796 3.61-1.89.331-.521.487-1.06.539-1.98h1.093v-.345h-4.894v.344h1.736c-.018 1.06-.087 1.599-.244 2.05-.295.87-1.094 1.425-2.014 1.425-.954 0-1.788-.539-2.117-1.355-.296-.73-.417-2.015-.417-4.217 0-2.363.209-3.873.625-4.516.435-.66 1.232-1.042 2.135-1.042.816 0 1.493.26 2.066.798.626.609.955 1.251 1.232 2.432h.26zm-15.223 7.499h-3.246l1.631-4.81zm.122.344l1.129 3.388h-1.511v.345h4.704v-.345h-1.215l-3.75-11.231h-.52l-3.924 11.23h-.833v.346h2.812v-.345h-1.51l1.128-3.388zm-15.4 3.388V6.308h.695c.956 0 1.303.018 1.616.053.816.121 1.406.416 1.806.867.625.713.833 1.755.833 4.29 0 1.822-.104 3.021-.312 3.785-.208.747-.8 1.389-1.564 1.65-.607.208-.867.242-2.275.242zm-1.854 0h-1.441v.345h4.112c2.205 0 2.987-.173 3.96-.883 1.509-1.111 2.376-2.918 2.376-4.983 0-1.858-.693-3.438-2.011-4.567-1.077-.919-1.946-1.143-4.482-1.143h-3.955v.344h1.44zm-12.308 0h-1.441v.345h8.608l.33-3.61h-.226c-.538 1.894-.834 2.484-1.476 2.935-.4.296-.555.33-1.736.33h-2.204v-5.348h.555c1.007 0 1.458.191 1.701.694.174.348.209.539.278 1.599h.226V9.365h-.226c-.034 1.892-.365 2.17-2.534 2.152V6.308h1.336c.92 0 1.112 0 1.372.053.625.103 1.093.364 1.423.798.365.469.573.99.799 1.98h.225l-.12-3.175h-8.331v.344h1.441zm-9.915-5.59V6.308h1.164c2.12 0 2.588.487 2.588 2.692 0 1.077-.19 1.755-.59 2.154-.348.33-.87.451-1.98.451zm-1.855 5.59h-1.44v.345h4.737v-.345H93.71V11.95h1.182c1.702 0 2.553-.172 3.315-.674.869-.556 1.336-1.373 1.336-2.328 0-1.284-.815-2.293-2.237-2.76-.556-.172-1.078-.224-2.45-.224h-4.442v.344h1.441v10.887" fill="#231f20"/><path d="M70.898 19.54c-2.242.975-33.103 14.548-33.103 14.548V-.003c14.254 0 26.665 7.89 33.103 19.542" fill="#a9c1e8"/><path d="M70.898 19.54c-1.068.464-8.627 3.785-16.251 7.138.001-.005 1.572-6.913-3.137-11.678-4.293-4.181-9.233-5.627-13.715-5.627V65.75c3.882 0 6.547-1.748 7.298-4.65H67.55c2.638-3.361 4.8-7.363 6.102-11.325 0 0 1.94-5.226 1.94-11.982 0-6.62-1.704-12.841-4.693-18.253" fill="#3a619b"/><path d="M4.692 19.54c2.242.975 33.103 14.548 33.103 14.548V-.003c-14.254 0-26.665 7.89-33.103 19.542" fill="#3a619b"/><path d="M30.496 61.1l-6.941 11.712a37.682 37.682 0 0014.24 2.775V65.75c-3.881 0-6.546-1.748-7.299-4.65" fill="#a9c1e8"/><path d="M30.494 61.103l.002-.003H8.042A37.915 37.915 0 0023.555 72.81l6.939-11.708" fill="#3a619b"/><path d="M24.08 15c-4.71 4.765-3.138 11.673-3.137 11.677 0 .006 16.853 7.41 16.853 7.41V9.373c-4.484 0-9.424 1.446-13.716 5.626" fill="#fff"/><path d="M4.692 19.54A37.627 37.627 0 000 37.791c0 6.756 1.94 11.982 1.94 11.982 18.745-13.46 32.3 2.245 35.854 6.912l.001.002v-22.6S6.934 20.515 4.692 19.54" fill="#a9c1e8"/><path d="M37.794 56.686c-3.554-4.668-17.108-20.37-35.855-6.913 1.302 3.963 3.463 7.964 6.102 11.326h22.456c.752 2.903 3.417 4.651 7.298 4.651v-9.063l-.001-.001" fill="#e0e9f7"/><path d="M45.094 61.1l6.94 11.712a37.678 37.678 0 01-14.239 2.775V65.75c3.882 0 6.546-1.748 7.299-4.65" fill="#3a619b"/><path d="M45.096 61.103l-.002-.003h22.454A37.903 37.903 0 0152.035 72.81l-6.939-11.708" fill="#e0e9f7"/><path d="M37.796 56.686c3.554-4.668 17.108-20.37 35.855-6.913-1.302 3.963-3.464 7.964-6.102 11.326H45.093c-.752 2.903-3.417 4.651-7.298 4.651v-9.063l.001-.001M15.116 7.554c-.16 9.403 6.098 9.25 11.298 10.87a4.402 4.402 0 00-1.221 3.045 4.423 4.423 0 004.423 4.422c1.268 0 2.41-.537 3.215-1.392 3.565 1.224 4.558 4.419 4.965 5.3v-6.673c-1.523-13.355-16.08-9.182-22.68-15.572" fill="#a9c1e8"/><path d="M27.95 21.313c0 .937.715 1.86 1.71 1.86.87 0 1.576-.768 1.686-1.688-.66-.843-1.448-1.475-2.316-1.97-.613.277-1.08 1.008-1.08 1.798" fill="#3a619b"/><path d="M60.475 7.554c.158 9.403-6.098 9.25-11.299 10.87a4.402 4.402 0 011.221 3.045 4.423 4.423 0 01-4.422 4.422 4.403 4.403 0 01-3.216-1.392c-3.565 1.224-4.558 4.419-4.964 5.3v-6.673c1.522-13.355 16.08-9.182 22.68-15.572" fill="#fff"/><path d="M47.64 21.313c0 .937-.715 1.86-1.71 1.86-.87 0-1.574-.768-1.686-1.688.66-.843 1.448-1.475 2.316-1.97.613.277 1.08 1.008 1.08 1.798" fill="#3a619b"/></svg>